<?xml version="1.0" encoding="utf-8"?>
<!-- Generator: Adobe Illustrator 22.0.1, SVG Export Plug-In . SVG Version: 6.00 Build 0)  -->
<!DOCTYPE svg PUBLIC "-//W3C//DTD SVG 1.1//EN" "http://www.w3.org/Graphics/SVG/1.1/DTD/svg11.dtd" [
	<!ENTITY st0 "fill:none;">
	<!ENTITY st1 "fill:#154273;">
	<!ENTITY st2 "fill:#FFFFFF;">
]>
<svg version="1.1" xmlns="http://www.w3.org/2000/svg" xmlns:xlink="http://www.w3.org/1999/xlink" x="0px" y="0px"
	 width="314.0018311px" height="125px" viewBox="0 0 314.0018311 125" style="enable-background:new 0 0 314.0018311 125;"
	 xml:space="preserve">
<metadata><?xpacket begin="﻿" id="W5M0MpCehiHzreSzNTczkc9d"?>
<x:xmpmeta xmlns:x="adobe:ns:meta/" x:xmptk="Adobe XMP Core 5.6-c143 79.161210, 2017/08/11-10:28:36        ">
   <rdf:RDF xmlns:rdf="http://www.w3.org/1999/02/22-rdf-syntax-ns#">
      <rdf:Description rdf:about=""
            xmlns:dc="http://purl.org/dc/elements/1.1/"
            xmlns:xmp="http://ns.adobe.com/xap/1.0/"
            xmlns:xmpGImg="http://ns.adobe.com/xap/1.0/g/img/"
            xmlns:xmpMM="http://ns.adobe.com/xap/1.0/mm/"
            xmlns:stRef="http://ns.adobe.com/xap/1.0/sType/ResourceRef#"
            xmlns:stEvt="http://ns.adobe.com/xap/1.0/sType/ResourceEvent#"
            xmlns:illustrator="http://ns.adobe.com/illustrator/1.0/"
            xmlns:xmpTPg="http://ns.adobe.com/xap/1.0/t/pg/"
            xmlns:stDim="http://ns.adobe.com/xap/1.0/sType/Dimensions#"
            xmlns:xmpG="http://ns.adobe.com/xap/1.0/g/"
            xmlns:pdf="http://ns.adobe.com/pdf/1.3/"
            xmlns:pdfx="http://ns.adobe.com/pdfx/1.3/"
            xmlns:xmpRights="http://ns.adobe.com/xap/1.0/rights/">
         <dc:format>image/svg+xml</dc:format>
         <dc:title>
            <rdf:Alt>
               <rdf:li xml:lang="x-default">xxx_Logo_online_pos_fr</rdf:li>
            </rdf:Alt>
         </dc:title>
         <dc:rights>
            <rdf:Alt>
               <rdf:li xml:lang="x-default">Rights: By ministerial order of 16 June 2008 (Government Gazette 2008, no. 115), the State of the Netherlands (Ministry of General Affairs) entered a copyright reservation, as referred to in section 15b of the Copyright Act 1912, concerning the use and application of central government's general purpose Rijkslogo and visual identity, including the fonts Rijksoverheid Serif and Rijksoverheid Sans. This reservation does not apply to parties to whom central government has supplied the Rijkslogo and the visual identity for use in carrying out activities or services commissioned by central government. Any use in any form or by any means, electronic, mechanical, photocopying, recording or otherwise is prohibited unless prior written authorisation has been obtained from central government. To obtain authorisation, you should apply to the Government Information Service.</rdf:li>
            </rdf:Alt>
         </dc:rights>
         <xmp:CreatorTool>Adobe Illustrator CC 22.0 (Macintosh)</xmp:CreatorTool>
         <xmp:CreateDate>2017-11-30T15:44:10+01:00</xmp:CreateDate>
         <xmp:ModifyDate>2017-11-30T15:44:10+01:00</xmp:ModifyDate>
         <xmp:MetadataDate>2017-11-30T15:44:10+01:00</xmp:MetadataDate>
         <xmp:Thumbnails>
            <rdf:Alt>
               <rdf:li rdf:parseType="Resource">
                  <xmpGImg:width>256</xmpGImg:width>
                  <xmpGImg:height>104</xmpGImg:height>
                  <xmpGImg:format>JPEG</xmpGImg:format>
                  <xmpGImg:image>/9j/4AAQSkZJRgABAgEASABIAAD/7QAsUGhvdG9zaG9wIDMuMAA4QklNA+0AAAAAABAASAAAAAEA&#xA;AQBIAAAAAQAB/+4ADkFkb2JlAGTAAAAAAf/bAIQABgQEBAUEBgUFBgkGBQYJCwgGBggLDAoKCwoK&#xA;DBAMDAwMDAwQDA4PEA8ODBMTFBQTExwbGxscHx8fHx8fHx8fHwEHBwcNDA0YEBAYGhURFRofHx8f&#xA;Hx8fHx8fHx8fHx8fHx8fHx8fHx8fHx8fHx8fHx8fHx8fHx8fHx8fHx8fHx8f/8AAEQgAaAEAAwER&#xA;AAIRAQMRAf/EAaIAAAAHAQEBAQEAAAAAAAAAAAQFAwIGAQAHCAkKCwEAAgIDAQEBAQEAAAAAAAAA&#xA;AQACAwQFBgcICQoLEAACAQMDAgQCBgcDBAIGAnMBAgMRBAAFIRIxQVEGE2EicYEUMpGhBxWxQiPB&#xA;UtHhMxZi8CRygvElQzRTkqKyY3PCNUQnk6OzNhdUZHTD0uIIJoMJChgZhJRFRqS0VtNVKBry4/PE&#xA;1OT0ZXWFlaW1xdXl9WZ2hpamtsbW5vY3R1dnd4eXp7fH1+f3OEhYaHiImKi4yNjo+Ck5SVlpeYmZ&#xA;qbnJ2en5KjpKWmp6ipqqusra6voRAAICAQIDBQUEBQYECAMDbQEAAhEDBCESMUEFURNhIgZxgZEy&#xA;obHwFMHR4SNCFVJicvEzJDRDghaSUyWiY7LCB3PSNeJEgxdUkwgJChgZJjZFGidkdFU38qOzwygp&#xA;0+PzhJSktMTU5PRldYWVpbXF1eX1RlZmdoaWprbG1ub2R1dnd4eXp7fH1+f3OEhYaHiImKi4yNjo&#xA;+DlJWWl5iZmpucnZ6fkqOkpaanqKmqq6ytrq+v/aAAwDAQACEQMRAD8A5NnQOodirsVdirsVfcX5&#xA;ef8AKAeWf+2TY/8AUMmaPN9Z95dpj+ke5kGVs3Yq7FXYq7FXYq7FXYq7FXYq7FXYq7FXYq7FXYq7&#xA;FXYq7FXYq7FXYq7FXYq7FXYq/P3OgdQ7FXYq7FXYq+4vy8/5QDyz/wBsmx/6hkzR5vrPvLtMf0j3&#xA;Mgytm7FXYq7FXYq7FXYq7FXYq7FXYq7FXYq7FXYq7FXYq7FXYq7FXYq7FXYq7FXYq7FX5+50DqHY&#xA;q7FXYq7FX3F+Xn/KAeWf+2TY/wDUMmaPN9Z95dpj+ke5kGVs3Yq7FXYq7FXYq7FXYq7FXYq7FXYq&#xA;7FXYq7FXYq7FXYq7FXYq7FXYq7FXYq7FXYq/P3OgdQ7FXYq7FXYq+4vy8/5QDyz/ANsmx/6hkzR5&#xA;vrPvLtMf0j3Mgytm7FXYq7FXYq7FXYq7FXYq7FXYq7FXYq7FXYq7FXYq7FXYq7FXYq7FXYq7FXYq&#xA;7FX5+50DqHYq7FXYq7FX3F+Xn/KAeWf+2TY/9QyZo831n3l2mP6R7mQZWzdirsVdirsVdirsVdir&#xA;sVdirsVdirsVdirsVdirsVdirsVdirsVdirsVdirsVdir8/c6B1CvY2v1u9t7X1Y4PXkSL1pm4xp&#xA;zYLyduyrWpPhgJoJAeyWn5NyxeXZtOnMzrczW9xNqkdrG3pGKG69ZIw7LcFEkSjCgZiBxX48wzqP&#xA;Vf46OQMO1PI9d0ibR9XutLmljnltHMckkJJQsOoHIKajoQRscy4ysW48hRpAZJD7i/Lz/lAPLP8A&#xA;2ybH/qGTNHm+s+8u0x/SPcyDK2bsVdirsVdirsVdirsVdirsVdirsVdirsVdirsVdirsVdirsVdi&#xA;rsVdirsVdirsVfFPkXypJqF9Z6vdpFPoFndxfpZFmtzMsSn1GDW7yJIVaNGJKqfhDH9k5u8uShQ5&#xA;ushG9+j2z8y/y2/L+bzLpD6g6aXDqE1vYWltpqotxcTTOUrIpXiqLVSZDyOxHUrmDhzT4TW/vcnJ&#xA;jjYZTNbXWhvoWj/pXVbm9uSbRHjlt1CR21t6jTGMwFCvJFSrA/a3au2VA8Vmg2VVCyw3yX+WHkKD&#xA;z/cw2btqFzpXEahp2rmKRlaRA4lionGatRX4RwNd91pdkzz4N+vc1QxR4nmn5r+TktvMes6vpMcF&#xA;v5ejmEUIaaBGaZD6MixQiRpnHrRSfFx/ZbwOZWDJcQDzacsNyRyfT35ef8oB5Z/7ZNj/ANQyZq83&#xA;1n3lzsf0j3Mgytm7FXYq7FXYq7FXYq7FXYq7FXYq7FXYq7FXYq7FXYq7FXYq7FXYq7FXYq7FXYq7&#xA;FXx/+S9npV/5hubHUU4WzQCe5vTIkSw2tu4e4WQurD05U+B6FTx2rQkZuNSSBYddhAJ3eyN5ustU&#xA;a413y3PPc2WialHHfaZBDDNZ3ForK8k8cVIpg8K/vFk3+MADkOmF4ZG0uocjjvcdE6uJ9FvWj816&#xA;XrkEOn25Mv1r1OdpJABSaC7djGySOZ/3asx4caqvUGABHpI3ZmjuCkt55zs4Bfebr64uYvLs15Fb&#xA;aTapBFHa3ET0D386t6ksyk/CSFDBQtBU1ExjP0jn+NmBn/F0eYfntF5fiuLCTRglxZ6jJPfWd5FI&#xA;jxCKTiJIYlRRxX1+b0LGjE0AqcytLe99GjPXR9F/l5/ygHln/tk2P/UMma7N9Z95c3H9I9zIMrZu&#xA;xV2KuxV2KuxV2KuxV2KuxV2KuxV2KuxV2KuxV2KuxV2KuxV2KuxV2KuxV2KuxV8S/lz5pHl3zJFd&#xA;TXDW1hMpi1CSOCK4lMFQ5RFmV1qzIB0zd5ocUXV45UWe6f5m/Jfy5YalqejQya3qdwYmi03WYirV&#xA;9Q+oEMMP1cLxblRv5ad8oMMsiAdh5NwlAbjf3pYPzp0MIYx+X+gemSGKfV46EioBpw6ipyX5Y/zp&#xA;MfGH80Jjdebfyh81+X4D5hsl8u3ltcEi10aNvWeJYuICloTbqrMRsTX4ciMeSB2397IzhIb7e5h/&#xA;5m+bbLXtRtYtLuZLjRbGELYrcW8EE8fIASI/oJGrDknIfPLsOMxG/NqyTs7cn1f+Xn/KAeWf+2TY&#xA;/wDUMmanN9Z95dhj+ke5kGVs3Yq7FXYq7FXYq7FXYq7FXYq7FXYq7FXYq7FXYq7FXYq7FXYq7FXY&#xA;q7FXYq7FXYq/P3OgdQ7FXYq7FXYq+4vy8/5QDyz/ANsmx/6hkzR5vrPvLtMf0j3Mgytm7FXYq7FX&#xA;Yq7FXYq7FXYq7FXYq7FXYq7FXYq7FXYq7FXYq7FXYq7FXYq7FXYq7FWD/wDKkfys/wCrBF/yNn/6&#xA;qZf+Zyd7V4EO53/Kkfys/wCrBF/yNn/6qY/mcnevgQ7nf8qR/Kz/AKsEX/I2f/qpj+Zyd6+BDud/&#xA;ypH8rP8AqwRf8jZ/+qmP5nJ3r4EO53/Kkfys/wCrBF/yNn/6qY/mcnevgQ7mY2Fja2Fjb2NnGIrS&#xA;0iSC3iBJCRxqFRQTU7KKb5STZstgFK+BLsVdirsVdirsVdirsVdirsVdirsVdirsVdirsVdirsVd&#xA;irsVdirsVdirsVdirsVdirsVdirsVdirsVdirsVdirsVdirsVdirsVdirsVdirsVdirsVdirsVdi&#xA;rsVdirsVdirsVdirsVdirsVdirsVdirsVdirsVdirsVdirsVdirsVdirsVdirsVdirsVdirsVdir&#xA;sVdirsVdirsVdirsVdirsVdirsVf/9k=</xmpGImg:image>
               </rdf:li>
            </rdf:Alt>
         </xmp:Thumbnails>
         <xmpMM:RenditionClass>default</xmpMM:RenditionClass>
         <xmpMM:OriginalDocumentID>uuid:65E6390686CF11DBA6E2D887CEACB407</xmpMM:OriginalDocumentID>
         <xmpMM:DocumentID>xmp.did:60061625-ced1-4892-9870-30fb9174b3a6</xmpMM:DocumentID>
         <xmpMM:InstanceID>xmp.iid:60061625-ced1-4892-9870-30fb9174b3a6</xmpMM:InstanceID>
         <xmpMM:DerivedFrom rdf:parseType="Resource">
            <stRef:instanceID>uuid:6ea27f54-23be-9b48-87eb-53175be4eeb6</stRef:instanceID>
            <stRef:documentID>xmp.did:1f8f36ca-f461-4aec-90bd-7bfd9df2de46</stRef:documentID>
            <stRef:originalDocumentID>uuid:65E6390686CF11DBA6E2D887CEACB407</stRef:originalDocumentID>
            <stRef:renditionClass>default</stRef:renditionClass>
         </xmpMM:DerivedFrom>
         <xmpMM:History>
            <rdf:Seq>
               <rdf:li rdf:parseType="Resource">
                  <stEvt:action>saved</stEvt:action>
                  <stEvt:instanceID>xmp.iid:4bc33943-1bb8-41d9-b42d-3a75a8bce46d</stEvt:instanceID>
                  <stEvt:when>2017-10-23T13:00:12+02:00</stEvt:when>
                  <stEvt:softwareAgent>Adobe Illustrator CC 22.0 (Macintosh)</stEvt:softwareAgent>
                  <stEvt:changed>/</stEvt:changed>
               </rdf:li>
               <rdf:li rdf:parseType="Resource">
                  <stEvt:action>saved</stEvt:action>
                  <stEvt:instanceID>xmp.iid:60061625-ced1-4892-9870-30fb9174b3a6</stEvt:instanceID>
                  <stEvt:when>2017-11-30T15:44:10+01:00</stEvt:when>
                  <stEvt:softwareAgent>Adobe Illustrator CC 22.0 (Macintosh)</stEvt:softwareAgent>
                  <stEvt:changed>/</stEvt:changed>
               </rdf:li>
            </rdf:Seq>
         </xmpMM:History>
         <illustrator:StartupProfile>Web</illustrator:StartupProfile>
         <xmpTPg:NPages>1</xmpTPg:NPages>
         <xmpTPg:HasVisibleTransparency>False</xmpTPg:HasVisibleTransparency>
         <xmpTPg:HasVisibleOverprint>False</xmpTPg:HasVisibleOverprint>
         <xmpTPg:MaxPageSize rdf:parseType="Resource">
            <stDim:w>314.001838</stDim:w>
            <stDim:h>125.000000</stDim:h>
            <stDim:unit>Pixels</stDim:unit>
         </xmpTPg:MaxPageSize>
         <xmpTPg:PlateNames>
            <rdf:Seq>
               <rdf:li>Cyan</rdf:li>
               <rdf:li>Magenta</rdf:li>
               <rdf:li>Yellow</rdf:li>
               <rdf:li>Black</rdf:li>
            </rdf:Seq>
         </xmpTPg:PlateNames>
         <xmpTPg:SwatchGroups>
            <rdf:Seq>
               <rdf:li rdf:parseType="Resource">
                  <xmpG:groupName>Standaardstaalgroep</xmpG:groupName>
                  <xmpG:groupType>0</xmpG:groupType>
                  <xmpG:Colorants>
                     <rdf:Seq>
                        <rdf:li rdf:parseType="Resource">
                           <xmpG:swatchName>Wit</xmpG:swatchName>
                           <xmpG:mode>RGB</xmpG:mode>
                           <xmpG:type>PROCESS</xmpG:type>
                           <xmpG:red>255</xmpG:red>
                           <xmpG:green>255</xmpG:green>
                           <xmpG:blue>255</xmpG:blue>
                        </rdf:li>
                        <rdf:li rdf:parseType="Resource">
                           <xmpG:swatchName>Zwart</xmpG:swatchName>
                           <xmpG:mode>RGB</xmpG:mode>
                           <xmpG:type>PROCESS</xmpG:type>
                           <xmpG:red>0</xmpG:red>
                           <xmpG:green>0</xmpG:green>
                           <xmpG:blue>0</xmpG:blue>
                        </rdf:li>
                        <rdf:li rdf:parseType="Resource">
                           <xmpG:swatchName>R21G66B115</xmpG:swatchName>
                           <xmpG:type>PROCESS</xmpG:type>
                           <xmpG:tint>100.000000</xmpG:tint>
                           <xmpG:mode>RGB</xmpG:mode>
                           <xmpG:red>21</xmpG:red>
                           <xmpG:green>66</xmpG:green>
                           <xmpG:blue>115</xmpG:blue>
                        </rdf:li>
                     </rdf:Seq>
                  </xmpG:Colorants>
               </rdf:li>
            </rdf:Seq>
         </xmpTPg:SwatchGroups>
         <pdf:Producer>Adobe PDF library 15.00</pdf:Producer>
         <pdfx:CreatorVersion>21.0.0</pdfx:CreatorVersion>
         <xmpRights:Marked>True</xmpRights:Marked>
      </rdf:Description>
   </rdf:RDF>
</x:xmpmeta>
                                                                                                    
                                                                                                    
                                                                                                    
                                                                                                    
                                                                                                    
                                                                                                    
                                                                                                    
                                                                                                    
                                                                                                    
                                                                                                    
                                                                                                    
                                                                                                    
                                                                                                    
                                                                                                    
                                                                                                    
                                                                                                    
                                                                                                    
                                                                                                    
                                                                                                    
                                                                                                    
                           
<?xpacket end="w"?>
	</metadata>
<g id="Laag_1">
	<g>
		<rect style="&st0;" width="314" height="125"/>
		<rect style="&st1;" width="50" height="100"/>
	</g>
	<path style="&st2;" d="M25.9037113,77.3628998H25.033432v-2.4129333h0.8702793V77.3628998z M29.8273716,66.7244873h-0.8701439
		v-2.4142838h0.8701439V66.7244873z M13.7119255,62.5619011c-0.0657434,0-0.5160284,0.001358-0.5160284,0.0941315
		c0,0.092907,0.20959,0.0450935,0.5160284,0.0968475c0.696413,0.1193962,0.9709311,0.469574,1.4597921,0.469574
		c0.4436359,0,0.8966303-0.3010063,0.7203197-0.9430847c-0.0292034-0.1074448-0.0915508-0.0823174-0.1062212-0.0092392
		c-0.0676441,0.2864723-0.419858,0.4509659-0.7912169,0.4509659C14.534934,62.721096,14.4361839,62.5619011,13.7119255,62.5619011z
		 M8.9198885,64.9734726c0.0763445,0.1060867,0.8974457,1.1712799-0.3633518,1.5785065
		c-0.0558271,0.0186157-0.0749798,0.0729446,0.0092363,0.1088028c0.9311323,0.3886185,1.3822317-0.3264008,1.3822317-0.3264008
		c0.468215,1.0718536-0.2500677,1.6661224-0.2500677,1.6661224c0.1014671,0.1936951,0.5464544,0.5160217,1.2223577,0.6672058
		c0.2553644-0.1366501,0.6154566-0.3992081,0.7654228-0.8024979c0,0,0.182416,0.4682159,0.0165653,0.9152374
		c1.9021988,0.1725082,2.5747051-1.3477249,4.0397959-1.0744324c0.0425148,0.0080109,0.0623465-0.0186081,0.0623465-0.0637054
		c0-0.9377899-0.5744352-2.6515884-2.3883438-2.9991837c-1.80861-0.3488159-1.3217859-1.0916862-1.3217859-1.0916862
		c0.7626991-0.0345039,1.2030687,0.2971992,1.2030687,0.2971992c0.1392355-0.228199-0.0570498-0.4748688-0.0570498-0.4748688
		c0.0729418-0.0876122,0.1134272-0.3979912,0.1134272-0.3979912c-0.8588762-0.001358-1.0843582-0.1856842-1.0843582-0.1856842
		c-0.1320295-0.5093689,0.222086-1.2296906,1.4975538-0.4589767c0.3183918-0.2838898,0.2944918-0.7163811,0.2944918-0.7163811
		c0.0961628-0.0450974,0.1557932-0.1962776,0.1557932-0.2612076c0-0.2123032-1.0199671-0.7840233-1.2819881-0.8516693
		c-0.0636978-0.3090172-0.458971-0.7548218-1.6581078-0.5942688c-0.5671005,0.0703621-0.9763641-0.0782394-0.7852478-0.4085846
		c0.0324707-0.0556908-0.0690031-0.0662842-0.1221132-0.0119514c-0.1313505,0.1313515-0.3124151,0.5014954,0.1837816,0.7508812
		c0.5498495,0.2784576,0.5836725,0.8303452,0.5876112,0.9099426c0.0092363,0.1166801-0.1313496,0.1272774-0.1624556,0.0105972
		c-0.2534637-0.9311333-1.5255356-1.131485-2.2789984-0.6367836c0.0444174,0.4987755,0.5804186,0.8277626,0.874218,0.8277626
		c0.1691113,0,0.4032869-0.1684303,0.4032869-0.4005699c0-0.1127396,0.0575933-0.0982056,0.0908718-0.0105934
		c0.1246948,0.3315659-0.3655186,1.0160255-1.0944033,0.5995636c-0.7408237,0.7415123-0.4449873,1.6553917-0.370822,1.9923935
		c0.1327076,0.6048584-0.1631355,1.1911163-0.7082243,0.9179535c-0.0279884-0.0133057-0.0558343-0.0239029-0.0558343,0.0410233
		C7.8387971,64.8699646,8.3349934,65.2997437,8.9198885,64.9734726z M13.0028791,61.2353592
		c-0.3462372,0.3860359-0.9099426,0.2971992-1.0452318-0.3395844C12.6685953,60.858696,12.9743547,60.9302788,13.0028791,61.2353592
		z M35.0717316,62.721096c-0.3715019,0-0.7230377-0.1644936-0.7906837-0.4509659
		c-0.015213-0.0730782-0.0775604-0.0982056-0.1060829,0.0092392c-0.1764488,0.6420784,0.2765541,0.9430847,0.7203178,0.9430847
		c0.4888611,0,0.7633781-0.3501778,1.4591141-0.469574c0.3064384-0.051754,0.516037-0.0039406,0.516037-0.0968475
		c0-0.0927734-0.450428-0.0941315-0.516037-0.0941315C35.6301384,62.5619011,35.53125,62.721096,35.0717316,62.721096z
		 M42.2273903,64.4892273c0-0.0649261-0.0278473-0.0543289-0.0550117-0.0410233
		c-0.5452347,0.2731628-0.8409424-0.3130951-0.7083702-0.9179535c0.0743027-0.3370018,0.3701439-1.2508812-0.3713646-1.9923935
		c-0.728878,0.4164619-1.2190971-0.2679977-1.0944023-0.5995636c0.0338211-0.0876122,0.0908699-0.1021461,0.0908699,0.0105934
		c0,0.2321396,0.2341843,0.4005699,0.4032898,0.4005699c0.2938042,0,0.8296623-0.3289871,0.8747597-0.8277626
		c-0.7534637-0.4947014-2.0255356-0.2943497-2.278862,0.6367836c-0.0317841,0.1166801-0.1725082,0.1060829-0.1631355-0.0105972
		c0.0046196-0.0795975,0.0377617-0.631485,0.5876122-0.9099426c0.4960594-0.2493858,0.3156738-0.6195297,0.1843338-0.7508812
		c-0.0536613-0.0543327-0.1551285-0.0437393-0.1226654,0.0119514c0.191658,0.3303452-0.2174683,0.4789467-0.7845688,0.4085846
		c-1.199131-0.160553-1.5945396,0.2852516-1.6581078,0.5942688c-0.2626915,0.067646-1.2821236,0.6393661-1.2821236,0.8516693
		c0,0.06493,0.0597649,0.2161102,0.1559334,0.2612076c0,0-0.0239067,0.4324913,0.294487,0.7163811
		c1.2746506-0.7707138,1.6289024-0.0503922,1.4975548,0.4589767c0,0-0.2254829,0.1843262-1.0850334,0.1856842
		c0,0,0.0411606,0.310379,0.1141014,0.3979912c0,0-0.1964149,0.2466698-0.0570488,0.4748688
		c0,0,0.4403763-0.3317032,1.2030678-0.2971992c0,0,0.486824,0.7428703-1.322464,1.0916862
		c-1.8133659,0.3475952-2.3876648,2.0613937-2.3876648,2.9991837c0,0.0450974,0.0191498,0.0717163,0.0616646,0.0637054
		c1.4657707-0.2732925,2.1375999,1.2469406,4.0404778,1.0744324c-0.165844-0.4470215,0.016571-0.9152374,0.016571-0.9152374
		c0.1498222,0.4032898,0.5093727,0.6658478,0.7654152,0.8024979c0.675087-0.1511841,1.1202126-0.4735107,1.2216797-0.6672058
		c0,0-0.7176056-0.5942688-0.2493896-1.6661224c0,0,0.4509659,0.7150192,1.3822327,0.3264008
		c0.0835381-0.0358582,0.0642471-0.0901871,0.009243-0.1088028c-1.2614822-0.4072266-0.4403763-1.4724197-0.3634949-1.5785065
		C41.7320061,65.2997437,42.2273903,64.8699646,42.2273903,64.4892273z M38.1093521,60.8957748
		c-0.1359596,0.6367836-0.6996651,0.7256203-1.0452309,0.3395844C37.0926476,60.9302788,37.398407,60.858696,38.1093521,60.8957748z
		 M24.6991482,50.2122726c0,0.160553,0.0690041,0.3011398,0.1240158,0.3793793
		c0.1121979,0.1591949,0.0949459,0.2466698,0.0418358,0.2997818c-0.0524235,0.053112-0.1405869,0.0703621-0.3004608-0.0411568
		c-0.0782394-0.0556908-0.2181473-0.1246948-0.3787022-0.1246948c-0.2745171,0-0.4104862,0.1803856-0.4104862,0.3342857
		c0,0.1538963,0.1359692,0.3342819,0.4104862,0.3342819c0.1605549,0,0.3004627-0.0690041,0.3787022-0.1246948
		c0.159874-0.1113815,0.2480373-0.0941315,0.3004608-0.0410194c0.0531101,0.0516167-0.0245857,0.6035042-0.0862541,1.0372162
		c-0.4542236,0.0954895-0.6731853,0.4589806-0.6731853,0.6712837c0,0.5464554,0.5843525,0.862133,0.9278717,1.0452347
		c0.3429775-0.1831017,0.92733-0.4987793,0.92733-1.0452347c0-0.2123032-0.2189617-0.5757942-0.6726437-0.6712837
		c-0.0623474-0.433712-0.1392288-0.9855995-0.0867958-1.0372162c0.0522938-0.053112,0.1405849-0.0703621,0.3004608,0.0410194
		c0.0782471,0.0556908,0.2181549,0.1246948,0.3787003,0.1246948c0.274519,0,0.4104862-0.1803856,0.4104862-0.3342819
		c0-0.1539001-0.1359673-0.3342857-0.4104862-0.3342857c-0.1605453,0-0.3004532,0.0690041-0.3787003,0.1246948
		c-0.1598759,0.1115189-0.248167,0.0942688-0.3004608,0.0411568c-0.052433-0.053112-0.0703621-0.1405869,0.0417004-0.2997818
		c0.0551472-0.0782394,0.1246929-0.2188263,0.1246929-0.3793793c0-0.2745209-0.1803856-0.4111671-0.3342838-0.4111671
		C24.8789902,49.8011055,24.6991482,49.9377518,24.6991482,50.2122726z M25.033432,54.2727165
		c-0.3681049,0-0.6665306,0.2970657-0.6665306,0.6658516c0,0.367424,0.2984257,0.6658478,0.6665306,0.6658478
		c0.3674278,0,0.665987-0.2984238,0.665987-0.6658478C25.699419,54.5697823,25.4008598,54.2727165,25.033432,54.2727165z
		 M25.033432,60.6836052c2.6683025,0,4.1738625,0.5093727,4.1738625,0.5093727
		c0.014534-1.3477287,0.0052986-2.0998344,0.7785931-1.9870949c-0.4224396-1.132843,1.3981247-1.5771523,1.3981247-3.0535164
		c0-0.9724274-0.6877213-1.0824509-0.8906536-1.0824509c-0.6043205,0-0.5093727,0.3925552-1.0234985,0.3925552
		c-0.06357,0-0.1299839-0.015892-0.1299839,0.0305634c0,0.1697922,0.1446533,0.4603386,0.3807297,0.4603386
		c0.3156757,0,0.3223305-0.3158112,0.5565147-0.3158112c0.1014595,0,0.2473431,0.0823135,0.2473431,0.406002
		c0,0.6274109-0.4111652,1.3238258-0.8966236,1.8624001c-0.1115265-0.1538963-0.2633858-0.2493858-0.4451313-0.2493858
		c-0.2871494,0-0.5392551,0.2997818-0.5392551,0.6697884c0,0.1366501,0.0220051,0.2362137,0.0717201,0.3515358
		c-0.1619129,0.0901909-0.3057518,0.1419449-0.4138813,0.1419449c-0.2188263,0-0.5491714-0.0888329-0.5491714-0.5690041
		c0-1.0691376,1.4339848-2.0110016,1.4339848-3.3666115c0-0.647377-0.4324913-1.292038-1.3357773-1.292038
		c-0.9690228,0-0.7886448,0.8848152-1.6270027,0.8848152c-0.0384407,0-0.0690022,0.0118141-0.0690022,0.0463181
		c0,0.0556908,0.14534,0.5452309,0.5790539,0.5452309c0.4642754,0,0.5949459-0.8024979,1.0054321-0.8024979
		c0.1538982,0,0.3834553,0.0901909,0.3834553,0.6340675c0,0.4231186-0.209589,1.1062202-0.5107307,1.7616119
		c-0.1088009-0.1088028-0.2560444-0.1884003-0.422575-0.1884003c-0.3594131,0-0.6173515,0.3474579-0.6173515,0.7626991
		c0,0.2626991,0.1033611,0.5160294,0.2818451,0.6831017c-0.2116261,0.2707138-0.4278717,0.4909019-0.7209988,0.4909019
		c-0.5790539,0-0.8349552-0.3289871-0.8349552-0.6871796c0-0.387394,0.7070007-0.5279808,0.7070007-1.132843
		c0-0.4111671-0.2673187-0.6433029-0.5247211-0.6433029c-0.2765541,0-0.4185009,0.1831017-0.4463463,0.1831017
		c-0.0285244,0-0.1704693-0.1831017-0.4470234-0.1831017c-0.257267,0-0.5245857,0.2321358-0.5245857,0.6433029
		c0,0.6048622,0.7070084,0.7454491,0.7070084,1.132843c0,0.3581924-0.2553654,0.6871796-0.8342838,0.6871796
		c-0.2939415,0-0.5100517-0.2201881-0.7216778-0.4909019c0.1783466-0.1670723,0.2818527-0.4204025,0.2818527-0.6831017
		c0-0.4152412-0.257946-0.7626991-0.6174965-0.7626991c-0.1663933,0-0.3136368,0.0795975-0.4224377,0.1884003
		c-0.3004551-0.6553917-0.5100517-1.3384933-0.5100517-1.7616119c0-0.5438766,0.229557-0.6340675,0.3833199-0.6340675
		c0.4099426,0,0.5406132,0.8024979,1.0055676,0.8024979c0.4337139,0,0.5789185-0.4895401,0.5789185-0.5452309
		c0-0.0345039-0.031105-0.0463181-0.0695457-0.0463181c-0.8383522,0-0.6579742-0.8848152-1.6263237-0.8848152
		c-0.903286,0-1.3357773,0.6446609-1.3357773,1.292038c0,1.3556099,1.4339848,2.2974739,1.4339848,3.3666115
		c0,0.4801712-0.3303375,0.5690041-0.5491714,0.5690041c-0.1088028,0-0.2521057-0.051754-0.4145603-0.1419449
		c0.0497131-0.1153221,0.0715828-0.2148857,0.0715828-0.3515358c0-0.3700066-0.2519684-0.6697884-0.5391197-0.6697884
		c-0.1817436,0-0.3330612,0.0954895-0.4444427,0.2493858c-0.486145-0.5385742-0.8966312-1.2349892-0.8966312-1.8624001
		c0-0.3236885,0.1458836-0.406002,0.2466717-0.406002c0.2347183,0,0.241375,0.3158112,0.5570488,0.3158112
		c0.2355347,0,0.3800602-0.2905464,0.3800602-0.4603386c0-0.0464554-0.0656071-0.0305634-0.1293125-0.0305634
		c-0.5146694,0-0.4191799-0.3925552-1.0233631-0.3925552c-0.2036133,0-0.890789,0.1100235-0.890789,1.0824509
		c0,1.4763641,1.8206997,1.9206734,1.3981247,3.0535164c0.7734375-0.1127396,0.7633781,0.6393661,0.7780476,1.9870949
		C20.859026,61.1929779,22.3645954,60.6836052,25.033432,60.6836052z M20.1407433,62.6746407
		c-0.7262955,0.1591949-1.2476215,0.3090172-1.4809818,0.3807373c0.0118256-0.3209724,0.1339302-0.6181717,0.4197235-0.6844597
		c0.0365391-0.0093727,0.0457821-0.0584068,0.0119534-0.0809555c-0.6472435-0.4297752-0.9941597,0.3939133-1.0040741,0.420536
		c-0.229557-0.0172501-0.5790558,0.0543327-0.5790558,0.3647118c0,0.9271927-2.1210251,1.4420013-2.6124668,1.5175247
		c0.8660688,0.3342819,1.2269764,1.4259644,1.2269764,1.4259644c0.628767-0.6287689,1.3643074-1.1832352,1.5260773-1.1832352
		c0.1672096,0,0.2307873,0.2095871,0.244091,0.3342819c0.0039406,0.0411606,0.042387,0.0544739,0.068325,0.0186157
		c0.3289852-0.4907684,0.1711483-0.6022873,0.1445255-0.7468109c-0.0211906-0.1140976,0.0119534-0.5438728,0.4921207-0.4934807
		V70.1362l-0.2466717,0.0490341c-0.1134205,0.0199661-1.0180645-0.749527-2.0540524-1.4657745
		c-1.0360022-0.7162399-1.5925083-0.2878265-2.7743874,0.3515396c-1.5453672,0.836998-3.1093435,0.0782394-3.1093435,0.0782394
		c-1.3330536,0.9524536-1.7867336,3.706192-1.7867336,3.706192c-0.2652884,0.1140976-0.7056575,0.2334976-1.1227994,0.2334976
		c-1.0175214,0-1.2045627-0.6154633-1.2045627-0.9842453c0-1.5706329,1.9665833-2.2444992,1.9665833-3.79245
		c0-0.3754349-0.1725073-1.9035568-2.0627527-1.9035568c-0.242054,0-1.6845956-0.0025787-1.6912513-0.0025787
		c-0.7076876,0-0.8846774-0.5093689-0.9828844-0.7044296c-0.0377614-0.0755234-0.1101534-0.0317841-0.0828578,0.0278473
		c0.054333,0.1299896-0.0816286,0.3276291-0.0816286,0.7203217c0,0.6287689,0.3694644,1.0067902,1.057178,1.0067902
		c0.3130941,0,0.6075788-0.0888367,0.7030692-0.1458817c0.0637054-0.0370865,0.097528,0.0239029,0.0676446,0.058403
		c-0.2997756,0.3501816-0.323689,1.0054321-0.2003531,1.1646347c0.0292044,0.0384369,0.065743,0.0278397,0.0729423-0.0027237
		c0.1658583-0.6644897,0.7879715-1.2919006,1.6256442-1.2919006c1.0253997,0,1.020102,0.8715057,1.020102,1.0823135
		c0,1.2602539-2.2132554,2.1847305-2.2132554,3.9171448c0,1.7576675,1.8564305,2.1343307,2.9322243,1.8557434
		c-0.0630331,1.7590332-2.0766149,2.3585968-2.1376038,1.0997009c-0.0046182-0.0596313-0.0478129-0.0743027-0.0809565,0.0052948
		c-0.2546859,0.6221161-0.1538982,1.1687012,0.6301274,1.3424377c0.0529747,0.0133057,0.0271664,0.0423737-0.0213256,0.0756531
		c-0.7758756,0.4933472-0.355474,2.4327621-0.3170333,3.0031281c0.0584078,0.822464-0.759304,0.7242584-0.8264055,0.7003479
		c-0.0338221-0.013176-0.0662861,0.0040741-0.014534,0.0690079c0.5797334,0.7109451,1.2959785,0.0609894,1.2959785,0.0609894
		c0.5411568,0.1697845,0.2056503,0.631485-0.1552567,0.8728561c-0.0563703,0.0384445-0.0516162,0.0756607,0.0093727,0.0795975
		c0.080956,0.0053024,0.9186354,0.0756607,1.0677795-0.5916824c0.3708229,0.4430847,0.9159193,0.2813034,1.0307045,0.2229004
		c0.1612263-0.0821838,0.9457951-0.3674316,1.0240345,0.5146713c0.0046186,0.0637054,0.0418367,0.0225449,0.0676451-0.0105972
		c0.5929089-0.7454529-0.0423803-1.2057877-0.3952732-1.2601242c0.0285254-0.041153,0.5040751-0.4350662,0.9311323,0.1113892
		c0.0285244,0.0370789,0.0558271,0.0450974,0.0611248-0.0292053c0.0490351-0.9458008-0.7203207-1.0319214-1.2184181-0.6207581
		c-0.0232277-0.0968475-0.1890717-0.6287689,0.5630255-0.6101608c0.01793,0,0.0537901-0.026619,0.0160284-0.0637054
		c-0.5836725-0.6168137-1.0638399-0.055687-1.1753588,0.0782394c-0.259984,0.3064423-0.9072256,0.1844635-0.9669919,0.1764526
		c0.2029338-3.2870178,3.0987477-2.1223907,3.4966016-3.7195053c0.018609-0.0848999,0.0563774-0.0531158,0.0643845-0.0225525
		c0.1094809,0.3899765,1.0923653,0.4444427,1.2727509-0.3236847c0.0099163-0.0476761,0.0039396-0.0848999-0.0305624-0.0490417
		c-0.8382225,0.8370056-2.7258873-1.78022-0.1498232-3.9065399c2.1992655-1.8132324,4.1704674-0.8024979,4.9199905-0.205513
		c0.0397987,0.262558-0.1168156,0.3474579-0.2169247,0.3792419c-0.0358601,0.0107269-0.0471325,0.0438766,0.0099163,0.0664215
		c0.209589,0.0795975,0.5047531,0.0543365,0.6434383-0.1419449c0.4721546,0.3302078,0.067646,0.7454453-0.1234703,0.8609085
		c-0.0483494,0.030426-0.0271683,0.0623474,0.0133114,0.0702209c0.433712,0.0782394,0.7905445-0.3647079,0.8077946-0.6193924
		l0.0729427,0.041153v1.8676987c0,2.6596069,3.0681858,3.0282516,6.4354744,5.2833481
		c3.3666096-2.2550964,6.4347954-2.6237411,6.4347954-5.2833481v-1.8676987l0.0736217-0.041153
		c0.0172501,0.2546844,0.3740826,0.6976318,0.8079319,0.6193924c0.0403442-0.0078735,0.0609894-0.0397949,0.013176-0.0702209
		c-0.1909714-0.1154633-0.5954895-0.5307007-0.1233368-0.8609085c0.1380081,0.1962814,0.4337158,0.2215424,0.6433029,0.1419449
		c0.0563698-0.0225449,0.0457764-0.0556946,0.0093727-0.0664215c-0.099556-0.0317841-0.2560425-0.116684-0.2162437-0.3792419
		c0.7495232-0.5969849,2.7205963-1.6077194,4.9199905,0.205513c2.5760651,2.1263199,0.6877213,4.7435455-0.1499596,3.9065399
		c-0.0351791-0.0358582-0.0404701,0.0013657-0.030426,0.0490417c0.1803856,0.7681274,1.163269,0.7136612,1.2720718,0.3236847
		c0.0078773-0.0305634,0.0464554-0.0623474,0.0649261,0.0225525c0.3979912,1.5971146,3.2936707,0.4324875,3.4966011,3.7195053
		c-0.0596199,0.0080109-0.7070084,0.1299896-0.9669838-0.1764526c-0.1113815-0.1339264-0.5915565-0.6950531-1.1752281-0.0782394
		c-0.0384407,0.0370865-0.0027199,0.0637054,0.015892,0.0637054c0.7521019-0.0186081,0.5863876,0.5133133,0.5624809,0.6101608
		c-0.4974174-0.4111633-1.2674522-0.3250427-1.2177391,0.6207581c0.0046196,0.0743027,0.0324707,0.0662842,0.060997,0.0292053
		c0.4271851-0.5464554,0.9020576-0.1525421,0.9312592-0.1113892c-0.35289,0.0543365-0.988308,0.5146713-0.3952713,1.2601242
		c0.0251274,0.0331421,0.0622101,0.0743027,0.067646,0.0105972c0.0775604-0.882103,0.8621292-0.5968552,1.0240402-0.5146713
		c0.1146431,0.058403,0.6591949,0.2201843,1.0306969-0.2229004c0.1484642,0.6673431,0.986824,0.5969849,1.0677795,0.5916824
		c0.0603104-0.0039368,0.0649376-0.041153,0.0092468-0.0795975c-0.3607788-0.2413712-0.6964226-0.7030716-0.1551285-0.8728561
		c0,0,0.7162437,0.6499557,1.2959785-0.0609894c0.0510712-0.0649338,0.0184708-0.0821838-0.0146713-0.0690079
		c-0.066967,0.0239105-0.8853569,0.1221161-0.8264046-0.7003479c0.0384483-0.5703659,0.4589767-2.5097809-0.3170357-3.0031281
		c-0.0490341-0.0332794-0.0749779-0.0623474-0.0211868-0.0756531c0.7838898-0.1737366,0.8848114-0.7203217,0.630127-1.3424377
		c-0.0331459-0.0795975-0.0770187-0.0649261-0.0809517-0.0052948c-0.0609932,1.2588959-2.0745773,0.6593323-2.1382828-1.0997009
		c1.0757942,0.2785873,2.9322166-0.0980759,2.9322166-1.8557434c0-1.7324142-2.213253-2.6568909-2.213253-3.9171448
		c0-0.2108078-0.0052986-1.0823135,1.0200996-1.0823135c0.8376808,0,1.4597931,0.6274109,1.6261902,1.2919006
		c0.0066528,0.0305634,0.0437355,0.0411606,0.0729485,0.0027237c0.1233292-0.1592026,0.099556-0.8144531-0.2002258-1.1646347
		c-0.0305595-0.0345001,0.0032692-0.0954895,0.067646-0.058403c0.0948105,0.057045,0.3899765,0.1458817,0.7023888,0.1458817
		c0.6877213,0,1.0571861-0.3780212,1.0571861-1.0067902c0-0.3926926-0.1352882-0.590332-0.0809555-0.7203217
		c0.0271645-0.0596313-0.0457764-0.1033707-0.082859-0.0278473c-0.0988846,0.1950607-0.2758751,0.7044296-0.9830208,0.7044296
		c-0.0065193,0-1.4491959,0.0025787-1.6919289,0.0025787c-1.8895683,0-2.0626183,1.5281219-2.0626183,1.9035568
		c0,1.5479507,1.9664497,2.221817,1.9664497,3.79245c0,0.368782-0.1863632,0.9842453-1.2044296,0.9842453
		c-0.417141,0-0.8575096-0.1194-1.1222496-0.2334976c0,0-0.4535446-2.7537384-1.7867393-3.706192
		c0,0-1.5639763,0.7587585-3.1092072-0.0782394c-1.1820145-0.6393661-1.7390633-1.0677795-2.7750587-0.3515396
		c-1.0359955,0.7162476-1.9406395,1.4857407-2.053381,1.4657745L31.4682274,70.1362v-6.1881294
		c0.4803047-0.0503922,0.5141277,0.3793831,0.4928017,0.4934807c-0.0264874,0.1445236-0.1843185,0.2560425,0.1446609,0.7468109
		c0.0251312,0.0358582,0.0637054,0.0225449,0.0676537-0.0186157c0.0131683-0.1246948,0.0768738-0.3342819,0.2440834-0.3342819
		c0.1617737,0,0.8979874,0.5544662,1.5267563,1.1832352c0,0,0.3607712-1.0916824,1.2269821-1.4259644
		c-0.4921265-0.0755234-2.6131516-0.590332-2.6131516-1.5175247c0-0.310379-0.3494987-0.3819618-0.5783768-0.3647118
		c-0.0105934-0.0266228-0.3575115-0.8503113-1.0042095-0.420536c-0.0343647,0.0225487-0.0251293,0.0715828,0.0119534,0.0809555
		c0.2859268,0.066288,0.4079056,0.3634872,0.4198666,0.6844597c-0.6181812-0.1897583-3.2511597-0.9285507-6.3738155-0.9285507
		c-1.5154839,0-2.9122486,0.175087-4.0225449,0.3754425v2.1449318h-0.8701439V62.6746407L20.1407433,62.6746407
		 M14.3798141,84.6480103c-0.230916-0.0929108-0.3834553-0.2415085-0.3834553-0.5452347v-1.3318405
		c-0.3812828-0.1339264-1.424612-0.5319214-3.5058384-0.5319214c-1.7296925,0-2.2716637,0.3899765-2.296793,0.5279846
		l-0.4596572,2.5362701c0,0,0.7003522-0.6407242,3.2087722-0.4762344c3.0217314,0.192337,6.1522636,1.9751434,6.1522636,0.0743027
		v-1.118309C14.726594,83.7830276,14.3798141,84.5364914,14.3798141,84.6480103z M32.9718933,83.7830276v1.118309
		c0,1.9008408,3.1305351,0.1180344,6.1522636-0.0743027c2.5082855-0.1644897,3.2087746,0.4762344,3.2087746,0.4762344
		l-0.4603386-2.5362701c-0.0245857-0.1380081-0.5664215-0.5279846-2.2967911-0.5279846
		c-2.0806847,0-3.1245575,0.397995-3.5052948,0.5319214v1.3318405c0,0.3037262-0.1525421,0.4523239-0.3833199,0.5452347
		C35.6871872,84.5364914,35.3395996,83.7830276,32.9718933,83.7830276z M25.033432,82.6317062
		c4.8656578,0,9.80616,0.2546921,10.452179,0.9881821c0.0516167,0.0584106,0.0729446-0.0012207,0.0729446-0.0450897
		l0.0012207-2.5786514c0-0.7521057-5.0976601-1.189888-10.5263443-1.189888c-5.4292259,0-10.5263433,0.4377823-10.5263433,1.189888
		l0.001358,2.5786514c0,0.043869,0.0211906,0.1035004,0.0729427,0.0450897
		C15.2274084,82.8863983,20.1679096,82.6317062,25.033432,82.6317062z M20.6938534,70.4730606l-0.4921207-0.1272736
		l-0.0411568,0.0609894l-0.5710411-0.2507477c0,0,0.421217-0.0025787,0.5107307-0.0039368
		c0.047821,0,0.0510731-0.0305634,0.0258083-0.0543365c-0.2326813-0.2281952-0.4362946-0.4271927-0.4362946-0.4271927
		s0.2320023,0.0862503,0.5637054,0.2095871c0.0377617,0.0133133,0.0517521-0.014534,0.033823-0.0397949
		c-0.1591969-0.2348557-0.3761215-0.5505295-0.3761215-0.5505295s0.4596653,0.3077927,0.5532475,0.3701401
		c0.029747,0.0211945,0.0536537,0.001358,0.0410213-0.0292053c-0.1226578-0.3037186-0.2618866-0.647377-0.2618866-0.647377
		l0.5046196,0.4762344c0.0232258,0.0213242,0.0491772,0.0093689,0.0425148-0.0225525
		c-0.0490284-0.2268372-0.1392288-0.6472397-0.1392288-0.6472397l0.3700161,0.541153
		c0.021862,0.0317841,0.0497074,0.0225525,0.0503864-0.014534c0.002037-0.1062164,0.0119534-0.5916824,0.0119534-0.5916824
		s0.1559353,0.3581924,0.2348537,0.541153c0.015892,0.0372238,0.043745,0.0398026,0.06357-0.0078735
		c0.0245857-0.0584106,0.1904373-0.4576187,0.1904373-0.4576187l0.0218697,0.6154556l-0.0823154,0.015892l-0.1033688,0.7415085
		c0.7348537-0.1723709,1.6501007-1.4285507,2.3518047-1.4285507c0.8357773,0,1.1394997,0.9789429,2.6841869,0.4827499
		c0.3892975,0.5770187,0.5259438,1.0785065,0.6764469,1.7722092c0.5956249,0.5611191,1.4333057,0.3740768,1.4333057-0.2201843
		c0-0.7999191-0.8721809-0.9524612-0.8721809-1.7867432c0-0.3727264,0.2613411-0.9087219,0.9736462-0.9087219
		c0.3768082,0,0.9292316,0.161911,1.2469444,0.161911c0.3773422,0,0.4576187-0.2732925,0.5001354-0.3860321
		c0.0343647-0.0848999,0.1371899-0.0570526,0.1272736,0.0092316c-0.0126324,0.0782394,0.0437393,0.1870422,0.0437393,0.3662033
		c0,0.5278473-0.7679977,0.5968552-0.8634796,0.5319214c-0.0398064-0.0278397-0.0683327,0.014534-0.0398064,0.0370865
		c0.1154575,0.0929108,0.0895119,0.4072266-0.0478134,0.6075745c-0.016573,0.0225525-0.0377617,0.0184784-0.0423794-0.0027161
		c-0.0823154-0.3780212-0.5259438-0.8450089-0.9165993-0.8450089c-0.1439819,0-0.4297733,0.0836716-0.4297733,0.4152374
		c0,0.4748688,0.9510994,0.9073639,0.9510994,1.8916016c0,1.0226898-1.0134468,1.2681351-2.0321922,1.0134506
		c0.034502,0.9683533,1.4803123,1.5440063,1.5148048,0.851532c0.002039-0.0476761,0.0278473-0.0184708,0.0425167,0.001358
		c0.2148876,0.295845,0.1166801,0.5213242-0.1566162,0.6354294c0.2521133,0.1140976,0.2972031,0.6221085,0.3715038,0.9258347
		c0.1107025,0.45504,0.5935879,0.2029343,0.6174946,0.1897583c0.0258083-0.015892,0.0350437-0.001358,0.0244484,0.0278473
		c-0.1829662,0.4735107-0.6685677,0.2944794-0.6685677,0.2944794c-0.2546864,0.1790314,0.053112,0.3395844,0.2838898,0.4085846
		c0.034502,0.0092392,0.032465,0.0345001,0.0052986,0.0450974c-0.1704693,0.0623474-0.534502,0.1763153-0.710947-0.1287689
		c-0.1306725,0.3158112-0.3998928,0.3064423-0.504076,0.3064423c-0.1863613,0-0.3103771,0.190979-0.2666378,0.4456635
		c0.0039387,0.0226822-0.0119534,0.0292053-0.0285263,0.0160294c-0.4443073-0.294487-0.188942-0.6407242-0.0099144-0.7269745
		c-0.0312424-0.0186081-0.3369942-0.1458893-0.4669933,0.2123032c-0.0099087,0.0278473-0.0271664,0.029068-0.037075,0.0025787
		c-0.1937046-0.5160217,0.229414-0.6658478,0.5344944-0.5358582c-0.0211906-0.072937-0.1810646-0.3250427-0.5823154-0.2440872
		c-0.0177937,0.0052948-0.029747-0.0027161-0.0184727-0.0278473c0.0656071-0.1578369,0.2646103-0.3913345,0.6287689-0.1552582
		c0.1856842,0.1154556,0.5066566-0.0529709,0.5358601-0.0676422c-0.6473713-1.2879639-1.9049168-0.2095947-2.1860886-1.2189636
		c-0.0052986-0.0213242-0.0304279-0.0398026-0.047678,0.015892c-0.0671005,0.2148895-0.615593,0.2294235-0.7163811-0.1936951
		c-0.0078773-0.0331421,0.0046177-0.0370865,0.0259438-0.015892c0.0801411,0.0809555,0.2526493,0.1538925,0.4794884-0.1737289
		c0.1498241-0.2162476,0.1711502-0.5054398,0.1711502-0.7017136c0-0.7840271-0.7826672-2.0986176-2.0031223-2.0986176
		c-0.7712574,0-1.6003799,0.3011475-2.2158375,0.749527l0.5730782,0.1313477
		c-0.0544682,0.5795975-0.6115189,0.9166031-1.1236076,0.7746582l0.0889778-0.663269
		c-0.0889778,0.0278397-0.3137722,0.1074371-0.433857,0.2785873c-0.0085564,0.013176-0.0264874,0.0092392-0.030426-0.0052948
		c-0.1048546-0.3754425,0.2055149-0.5650635,0.3023643-0.6142349c0.0105934-0.0066605,0.0099144-0.014534-0.0099163-0.014534
		c-0.277914-0.0105972-0.4343929,0.1936951-0.4782658,0.2639236c-0.0072002,0.0105896-0.0191536,0.0080109-0.0225487-0.001358
		C20.6128979,70.8047638,20.5638618,70.6110687,20.6938534,70.4730606z M22.3957005,74.9513245
		c-0.2195053,0.2679977-0.4118443,0.0119553-0.6996746,0.0119553c-0.2712574,0-0.3163528,0.2268372-0.3230095,0.3170319
		c-0.001358,0.015892-0.0105877,0.0225525-0.0218678,0.0053024c-0.3071175-0.4191818,0.0358582-0.6473846,0.2360764-0.6778107
		c-0.0291977-0.0291977-0.3308887-0.232132-0.5232277,0.0463181c-0.0146694,0.0199738-0.0331421,0.0107346-0.0331421-0.013176
		c-0.0093651-0.5199661,0.4031506-0.5571823,0.675087-0.3289795c0.0491714-0.1962814-0.0782394-0.3289871-0.2984238-0.3395844
		c-0.0264874,0-0.0305614-0.0172501-0.0198307-0.0292053c0.0920944-0.0994263,0.1816082-0.1445236,0.271801-0.1445236
		c0.2898655,0,0.3264122,0.366066,0.5153484,0.366066c0.2838898,0,0.6851387-0.3820953,0.7237148-0.4231186
		c-0.008007-0.0213242-0.2792721-0.7561798-0.2256184-1.1965485c0.002718-0.0186081-0.0071983-0.0211868-0.0198307-0.0133133
		c-0.1366482,0.0770187-0.484787,0.0743027-0.484787-0.3541107c0-0.0345078,0.0099163-0.0370865,0.029068-0.0092392
		c0.1525478,0.2108154,0.4000282-0.0266266,0.5233707-0.1658554c0.1339245-0.1485977,0.8475952-1.18853,1.8007259-1.18853
		c0.2095966,0.001358,0.4801674,0.1154556,0.6977711,0.2666397c-0.3289871,0.4005661-0.0027161,0.7838898,0.241375,0.7348557
		c0.0285244-0.0053024,0.0338287,0.0211868,0.0066624,0.0305557c-1.2595825,0.4735184-1.8226089,0.6631393-1.8226089,1.7177429
		c0,0.5505295,0.1882648,0.8556061,0.5112743,0.7840271c0.0245857-0.0066605,0.0312424,0.0039368,0.0139904,0.0225449
		c-0.1166725,0.1392288-0.2521057,0.1856842-0.3641663,0.1856842c-0.261343,0-0.3083401-0.1433029-0.4489269-0.1433029
		c-0.1446609,0-0.6135559,0.2758789-0.6135559,0.5067902c0,0.0874786,0.0550117,0.205513,0.2208633,0.3143158
		c0.010603,0.0066605,0.0046196,0.015892-0.0046177,0.0172501C22.8540001,75.2709427,22.4819546,75.3028641,22.3957005,74.9513245z
		 M25.712595,64.6975937c-0.3939133-0.0239029-0.6460114,0.0635681-0.6340656,0.189621
		C25.2701893,65.0889282,25.5248756,65.0663834,25.712595,64.6975937z M24.2594585,65.6712418
		c0.277914-0.0703583,0.5843582-0.0372162,0.6168156-0.026619c0.0437374,0.0146637,0.0425167,0.0809555-0.0073357,0.0876083
		c-0.5802765,0.0743027-0.6067638,0.3409424-0.9769077,0.3409424c-0.244091,0-0.5080128-0.2454529-0.4085827-0.6075821
		c0.0126324-0.0464554,0.0491714-0.0478134,0.0597649-0.0039368C23.5802956,65.6181335,23.8057785,65.7879257,24.2594585,65.6712418
		z M16.7297173,78.5288849c0.3846779,0.4921188,0.7527828,0.0292053,1.2567234,0.0292053
		c0.2454491,0,0.5459099,0.0835342,0.6022873,0.5770187c0.002718,0.0251236,0.0238991,0.0331421,0.0478058,0
		c0.5491714-0.750885-0.0763302-1.1740036-0.43643-1.2283401c0.0775681-0.0703583,0.6147785-0.4005661,0.9550457,0.0874786
		c0.0186024,0.0266266,0.0556927,0.0186081,0.0556927-0.0184708c0-0.9498825-0.7116337-1.0161667-1.226984-0.6050034
		c-0.0968475-0.3700027,0.1824303-0.6140976,0.5411568-0.6140976c0.0431957,0,0.0584087-0.0292053,0.0358601-0.0543289
		c-0.6361027-0.6818848-1.1123314,0.175087-1.2203197,0.3117371c-0.2541351,0.3382187-1.1627254-0.2972031-1.525528-0.6752243
		c0,0,0.8031712-0.8410797,0.8031712-1.6104355c0-0.0450974-0.0052967-0.1100235-0.0052967-0.1366501
		c0-0.0237656,0.0105934-0.0331421,0.0324631-0.0198288c0.0795975,0.0450974,0.1923389,0.0782394,0.2958431,0.0768814
		c0.1837826,0,0.5305614-0.0582733,0.5305614-0.7109451c0-0.0490341-0.0225468-0.0464554-0.0437374-0.0172501
		c-0.0954895,0.1380005-0.2008953,0.1684265-0.2818451,0.1684265c-0.6480637,0-2.0016356-2.162178-3.5973969-2.162178
		c-0.4165983,0-1.2057858,0.3011398-1.604454,0.7322693c0.193018,0.1141052,0.2294216,0.3475952,0.20959,0.5186081
		c-0.0292044,0.2746582-0.2466717,0.4099426-0.4695663,0.47229c-0.0398064,0.0092392-0.043066,0.0384445,0,0.0556946
		c0.8058872,0.3077927,2.2721996,0.8634872,2.6052685,1.1500931c0.3939142,0.3395844,0.3170261,0.9842453,0.0888271,1.8716354
		c-0.2208633,0.8528976-0.6924744,0.7362137-0.8662043,0.708374c-0.0252647-0.0039444-0.0338221,0.0119476-0.01793,0.0317841
		c0.2082319,0.2626953,0.4610157,0.350174,0.6778049,0.350174c0.4184999,0,0.5751152-0.2599869,0.7919035-0.2599869
		c0.3648462,0,1.1282253,0.5226898,1.1282253,0.9206772c0,0.2227631-0.1744089,0.4258347-0.3992119,0.5717163
		c-0.0146694,0.0105972-0.0119534,0.0278473,0.0099163,0.0317841C15.877368,79.1111984,16.591711,79.1721878,16.7297173,78.5288849z
		 M34.3633614,79.0819931c0.0218697-0.0039368,0.0251312-0.0211868,0.0105972-0.0317841
		c-0.2248039-0.1458817-0.3998909-0.3489532-0.3998909-0.5717163c0-0.3979874,0.7633781-0.9206772,1.1280899-0.9206772
		c0.2169228,0,0.3734016,0.2599869,0.7919044,0.2599869c0.2169228,0,0.4695702-0.0874786,0.6786194-0.350174
		c0.0152206-0.0198364,0.0065193-0.0357285-0.0179329-0.0317841c-0.1738663,0.0278397-0.6460114,0.1445236-0.8662033-0.708374
		c-0.228199-0.8873901-0.3050804-1.5320511,0.0888367-1.8716354c0.3329239-0.2866058,1.7986946-0.8423004,2.6052666-1.1500931
		c0.0430679-0.0172501,0.0397987-0.0464554,0-0.0556946c-0.2229004-0.0623474-0.4403687-0.1976318-0.469574-0.47229
		c-0.0199661-0.1710129,0.015892-0.4045029,0.2095909-0.5186081c-0.3986702-0.4311295-1.1885338-0.7322693-1.6051331-0.7322693
		c-1.5957603,0-2.9494705,2.162178-3.5973892,2.162178c-0.0809555,0-0.1863632-0.030426-0.2811737-0.1684265
		c-0.021328-0.0292053-0.0438728-0.0317841-0.0438728,0.0172501c0,0.6526718,0.3462372,0.7109451,0.5300179,0.7109451
		c0.1040459,0.001358,0.2161102-0.0317841,0.2963867-0.0768814c0.0213242-0.0133133,0.0319214-0.0039368,0.0319214,0.0198288
		c0,0.0266266-0.0052986,0.0915527-0.0052986,0.1366501c0,0.7693558,0.8038559,1.6104355,0.8038559,1.6104355
		c-0.3634872,0.3780212-1.2722054,1.013443-1.5262146,0.6752243c-0.1081238-0.1366501-0.5843506-0.9936218-1.2196388-0.3117371
		c-0.0225487,0.0251236-0.0073357,0.0543289,0.0357227,0.0543289c0.3581905,0,0.6374607,0.2440948,0.5412922,0.6140976
		c-0.5153484-0.4111633-1.2269745-0.3448792-1.2269745,0.6050034c0,0.0370789,0.0370827,0.0450974,0.0556908,0.0184708
		c0.3395824-0.4880447,0.8767986-0.1578369,0.9543591-0.0874786c-0.3600903,0.0543365-0.9849205,0.4774551-0.4357491,1.2283401
		c0.0232258,0.0331421,0.0444164,0.0251236,0.0478115,0c0.0563717-0.4934845,0.3568401-0.5770187,0.6014671-0.5770187
		c0.5040741,0,0.8721809,0.4629135,1.2568588-0.0292053C33.4752884,79.1721878,34.1896324,79.1111984,34.3633614,79.0819931z
		 M21.4486752,66.6076736c-0.0510731,0.0703583-0.2189617-0.0025787-0.2825317-0.0317841
		c-0.0146694-0.0066605-0.0172501,0-0.0119534,0.0105972c0.0404797,0.0901871,0.2022552,0.3607712,0.4424076,0.3607712
		c0.1086655,0,0.2671814-0.0637054,0.3122787-0.1366501c0,0,0.9398251,0.3050766,1.4047794,0.4338455
		c-0.1803856,0.2400208-0.2931252,0.5292053-0.3156738,0.8436584c-0.3747616-0.2309113-1.8743534-1.0347748-1.8743534-1.0347748
		l-0.4649544,0.6354294c-0.0768814,0.1048584-0.4482479-0.1658554-0.3713665-0.2719421l0.3547935-0.4854584
		c-0.1173592-0.1246948-0.4005699-0.0464554-0.4774513-0.0239105c-0.0107307,0.0027161-0.0206394-0.0025787-0.0107307-0.0211868
		c0.0452328-0.0954895,0.2215443-0.3899765,0.663271-0.2574081c0.001358-0.2692184-0.4005699-0.1829605-0.5052967-0.1537628
		c-0.0126324,0.0025864-0.016573-0.0027161-0.0052986-0.0146637c0.1086674-0.116684,0.4350796-0.3807449,0.8004684-0.1644974
		l0.1591892-0.2188263l-0.3216515-0.3382187l0.2015762-0.2772369l0.225481,0.3037186l1.7310505-2.3704109
		c0.0425148-0.0584106,0.3853569-0.1578407,0.5148048-0.1856842c0.013855,0.1325722,0.028389,0.4880447-0.0126324,0.5464554
		l-1.7025242,2.3917427l0.3587322,0.1180344l-0.1983147,0.2784576l-0.4237976-0.1976395L21.4486752,66.6076736z
		 M27.5193043,66.2204132c0,0.2174683,0.1339302,0.5358582,0.4244766,0.444313
		c0.014677-0.0066605,0.0278454-0.0025864,0.0245857,0.0119476c-0.0444164,0.2427368-0.4769077,0.4642792-0.6745453,0.1778107
		c-0.175087,0.3700027-0.1346092,0.7162399,0.244091,0.9205322c0.0205116,0.0119553,0.0244503,0.0384445,0.0006809,0.0556946
		c-0.2254829,0.1644897-0.5770168,0.1274109-0.7408314-0.1884003c-0.3105125,0.2334976-0.2654171,0.7322693-0.0770168,0.9020615
		c0,0.0027161-0.8595409,0.5107346-1.6394997,0.1472473c-0.5173855-0.2480316-0.938467-0.5650635-1.6056767-0.5133133
		c0.0927811-0.9352112,0.5604458-1.1818771,1.4199944-1.3159485c0.6870403-0.1113815,0.7746525-0.4270554,0.676445-0.6658478
		c-0.2334957-0.0623474-0.660553,0.1525345-0.660553,0.1525345c-0.0770168-0.1286316,0.034502-0.2626953,0.034502-0.2626953
		c-0.0425167-0.0517502-0.0637054-0.2241287-0.0637054-0.2241287c0.4801674,0,0.5650635-0.1060791,0.5650635-0.1060791
		c0.0855732-0.5001373-0.4237976-0.5532455-0.8117371-0.2838898c-0.1803856-0.1592026-0.1513157-0.3715057-0.1513157-0.3715057
		c-0.0536556-0.0264893-0.0874767-0.1100235-0.0874767-0.1458817c0-0.118042,0.5696812-0.4390106,0.7162457-0.4762344
		c0.0372181-0.1657104,0.244091-0.3952713,0.8489532-0.3407974c0.0722618-0.1605568-0.0450897-0.7455902-0.1193981-0.9034271
		c-0.0237694-0.0476761,0.0105953-0.0742989,0.0637054-0.0411568c0.2116356,0.1340675,0.421896,0.6275482,0.5650635,0.6367836
		c0,0,0.680521-0.3568306,0.713665-0.3370018c0.0324631,0.0186119,0.1286335,0.7787285,0.1286335,0.7787285
		c0.0903282,0.1113815,0.615593,0.0025787,0.8450146,0.1007919c0.0584068,0.0252609,0.0556908,0.0676422,0.0039387,0.0756531
		c-0.1716919,0.0292053-0.7195053,0.2652817-0.8096981,0.4164658
		C27.6672249,65.3356018,27.5193043,66.0292969,27.5193043,66.2204132z"/>
</g>
<g id="Isolatiemodus">
	<g>
		<rect style="&st0;" width="314" height="125"/>
	</g>
	<g>
		<path style="&st2;" d="M61.6743164,62.3867188h0.449707l0.1083984,0.3876953
			c0.2324219,0.8525391,0.7285156,1.2246094,1.9072266,1.2246094c1.1469727,0,2.0307617-0.6660156,2.0307617-1.6123047
			c0-0.6044922-0.4033203-1.1782227-1.3491211-1.7363281l-1.4726562-0.8681641
			c-0.9453125-0.5581055-1.4106445-1.3330078-1.4106445-2.3564453c0-1.534668,1.4262695-2.7128906,3.2402344-2.7128906
			c0.9458008,0,1.550293,0.1083984,2.1704102,0.3564453l-0.1396484,2.1860352h-0.449707l-0.0620117-0.3100586
			c-0.2011719-0.9458008-0.6357422-1.2558594-1.6743164-1.2558594c-1.1162109,0-1.8291016,0.6977539-1.8291016,1.4575195
			c0,0.6357422,0.3256836,1.1318359,1.1469727,1.5654297l1.5351562,0.8374023
			c1.0849609,0.5737305,1.6274414,1.3950195,1.6274414,2.387207c0,1.628418-1.5810547,3.0239258-3.4414062,3.0239258
			c-0.9770508,0-1.7211914-0.09375-2.3876953-0.3261719V62.3867188z"/>
		<path style="&st2;" d="M68.7578125,62.3867188h0.449707l0.1083984,0.3876953
			c0.2329102,0.8525391,0.7290039,1.2246094,1.9067383,1.2246094c1.1474609,0,2.03125-0.6660156,2.03125-1.6123047
			c0-0.6044922-0.4033203-1.1782227-1.3486328-1.7363281l-1.4731445-0.8681641
			c-0.9458008-0.5581055-1.4106445-1.3330078-1.4106445-2.3564453c0-1.534668,1.4262695-2.7128906,3.2402344-2.7128906
			c0.9453125,0,1.5498047,0.1083984,2.1699219,0.3564453l-0.1386719,2.1860352h-0.4501953L73.78125,56.9453125
			c-0.2021484-0.9458008-0.6357422-1.2558594-1.6748047-1.2558594c-1.1162109,0-1.8291016,0.6977539-1.8291016,1.4575195
			c0,0.6357422,0.3251953,1.1318359,1.1469727,1.5654297l1.534668,0.8374023
			c1.0859375,0.5737305,1.6279297,1.3950195,1.6279297,2.387207c0,1.628418-1.5810547,3.0239258-3.4414062,3.0239258
			c-0.9765625,0-1.7207031-0.09375-2.3876953-0.3261719V62.3867188z"/>
		<path style="&st2;" d="M80.6318359,54.7285156c1.0537109,0,1.7519531,0.1391602,2.2939453,0.418457l-0.1230469,2.1547852
			h-0.4189453l-0.0625-0.2788086c-0.2480469-0.9614258-0.6972656-1.3486328-1.8134766-1.3486328
			c-1.5351562,0-3.0234375,1.5498047-3.0234375,4.2475586c0,2.8681641,1.4423828,4.1396484,2.8837891,4.1396484
			c1.1474609,0,1.7207031-0.3720703,2.046875-1.1938477l0.1542969-0.3720703h0.4189453l-0.1552734,2.0463867
			c-0.5732422,0.2949219-1.5185547,0.4804688-2.6972656,0.4804688c-2.2480469,0-4.1699219-1.6738281-4.1699219-4.8989258
			C75.9658203,56.8676758,78.1826172,54.7285156,80.6318359,54.7285156z"/>
		<path style="&st2;" d="M84.5058594,60.0458984l3.5810547-0.1547852l-0.2167969,1.1162109l-3.6591797,0.1704102
			L84.5058594,60.0458984z"/>
		<path style="&st2;" d="M89.3105469,64.4648438c0.5273438-0.1552734,0.8994141-0.4345703,0.8994141-1.1943359v-7.6274414
			l-0.9765625-0.2480469v-0.3408203c0.6357422-0.1708984,1.1933594-0.2480469,1.7822266-0.2480469
			c0.5742188,0,1.0078125,0.0463867,1.4423828,0.1547852v0.2944336c-0.6669922,0.1860352-0.8994141,0.4960938-0.8994141,1.1162109
			v7.6899414l0.9765625,0.2480469v0.3408203c-0.5117188,0.1552734-1.1162109,0.2636719-1.7832031,0.2636719
			c-0.6201172,0-1.0224609-0.046875-1.4414062-0.1552734V64.4648438z"/>
		<path style="&st2;" d="M98.6269531,54.7285156c1.0546875,0,1.7519531,0.1391602,2.2949219,0.418457l-0.125,2.1547852h-0.4179688
			l-0.0625-0.2788086c-0.2480469-0.9614258-0.6972656-1.3486328-1.8134766-1.3486328
			c-1.5351562,0-3.0234375,1.5498047-3.0234375,4.2475586c0,2.8681641,1.4423828,4.1396484,2.8837891,4.1396484
			c1.1474609,0,1.7207031-0.3720703,2.046875-1.1938477l0.1542969-0.3720703h0.4189453l-0.1552734,2.0463867
			c-0.5732422,0.2949219-1.5195312,0.4804688-2.6972656,0.4804688c-2.2480469,0-4.1699219-1.6738281-4.1699219-4.8989258
			C93.9609375,56.8676758,96.1777344,54.7285156,98.6269531,54.7285156z"/>
		<path style="&st2;" d="M103.7724609,64.4648438c0.5732422-0.1708984,0.9140625-0.5117188,0.9140625-1.1318359v-7.6123047
			h-1.1621094c-0.6982422,0-1.0546875,0.3720703-1.2099609,1.0385742l-0.0927734,0.3564453h-0.4804688v-2.2631836
			c1.0693359,0.0307617,2.7910156,0.0463867,3.7207031,0.0463867c1.3798828,0,2.3564453-0.03125,3.5039062-0.1240234v2.3408203
			h-0.4804688l-0.0625-0.3564453c-0.0927734-0.6821289-0.3720703-1.0385742-0.9921875-1.0385742h-1.4101562v8.3408203
			l1.1464844,0.2480469v0.3408203c-0.5576172,0.1708984-1.1318359,0.2636719-1.8603516,0.2636719
			c-0.6660156,0-1.0849609-0.03125-1.5341797-0.1552734V64.4648438z"/>
		<path style="&st2;" d="M61.1474609,82.0644531c0.2636719-0.1240234,0.4648438-0.2939453,0.5424805-0.5888672l1.9379883-8.2939453
			l-0.8374023-0.1865234v-0.3710938c0.4033203-0.109375,1.1318359-0.1865234,1.597168-0.1865234h0.5112305l1.3642578,7.3945312
			h0.015625L68.8369141,72.4375h0.3876953c0.387207,0,1.0385742,0.03125,1.4882812,0.1240234v0.3720703l-0.7290039,0.1865234
			l0.3569336,8.5878906l0.8525391,0.2324219v0.3105469c-0.465332,0.1552734-0.8217773,0.2324219-1.2714844,0.2324219
			c-0.6357422,0-1.0078125-0.046875-1.3642578-0.1552734v-0.2636719c0.2949219-0.1396484,0.4804688-0.3251953,0.4804688-0.8056641
			l-0.0927734-6.8681641h-0.015625l-2.8212891,8.1396484l-0.465332-0.03125l-1.519043-8.1083984h-0.015625l-1.4882812,7.3017578
			l0.8837891,0.2480469v0.3105469c-0.434082,0.1699219-0.8061523,0.2324219-1.2871094,0.2324219
			c-0.3720703,0-0.7592773-0.0625-1.0693359-0.1552734V82.0644531z"/>
		<path style="&st2;" d="M72.4931641,79.7392578l0.4960938-3.1464844l0.0776367-0.9150391l-0.9301758-0.2949219v-0.2939453
			c0.4960938-0.1865234,0.9921875-0.2636719,1.550293-0.2636719c0.2788086,0,0.496582,0.015625,0.6977539,0.0927734
			l-0.6977539,4.5576172c-0.0620117,0.4648438-0.1240234,1.2558594-0.1240234,1.6591797
			c0,0.5117188,0.1860352,0.7441406,0.6206055,0.8837891v0.2636719c-0.3261719,0.1386719-0.6982422,0.2167969-1.1630859,0.2167969
			c-0.4960938,0-0.7441406-0.2636719-0.7441406-0.7128906C72.2763672,81.3515625,72.4160156,80.359375,72.4931641,79.7392578z
			 M73.2373047,72.5771484c0-0.5117188,0.4033203-0.9609375,0.8681641-0.9609375
			c0.4033203,0,0.7128906,0.3095703,0.7128906,0.7441406c0,0.5263672-0.4179688,0.9609375-0.8671875,0.9609375
			C73.5322266,73.3212891,73.2373047,73.0419922,73.2373047,72.5771484z"/>
		<path style="&st2;" d="M76.4609375,75.6777344l-0.9453125-0.2949219v-0.2939453
			c0.4960938-0.1865234,0.9609375-0.2636719,1.5351562-0.2636719c0.2011719,0,0.4179688,0.03125,0.6347656,0.1083984
			l-0.4960938,2.3720703h0.015625c0.7138672-1.5820312,1.7363281-2.5117188,2.7910156-2.5117188
			c0.6816406,0,1.2246094,0.4804688,1.2246094,1.4257812c0,0.4960938-0.1396484,1.2871094-0.2324219,1.9541016l-0.2792969,1.6738281
			c-0.046875,0.3564453-0.1240234,0.9619141-0.1240234,1.2871094c0,0.5117188,0.2480469,0.7128906,0.7285156,0.8056641v0.2636719
			c-0.3564453,0.1865234-0.7597656,0.2949219-1.2402344,0.2949219s-0.7597656-0.2636719-0.7597656-0.7128906
			c0-0.3876953,0.1083984-1.1474609,0.1865234-1.6435547l0.2949219-1.7832031
			c0.0771484-0.4804688,0.1542969-1.1474609,0.1542969-1.5654297c0-0.6972656-0.3095703-0.9306641-0.6816406-0.9306641
			c-0.8681641,0-2.1083984,1.6748047-2.1708984,3.8759766l-0.0927734,2.6201172h-1.3173828L76.4609375,75.6777344z"/>
		<path style="&st2;" d="M82.9560547,79.7392578l0.4960938-3.1464844l0.0771484-0.9150391l-0.9296875-0.2949219v-0.2939453
			c0.4960938-0.1865234,0.9921875-0.2636719,1.5498047-0.2636719c0.2792969,0,0.4960938,0.015625,0.6982422,0.0927734
			l-0.6982422,4.5576172c-0.0615234,0.4648438-0.1240234,1.2558594-0.1240234,1.6591797
			c0,0.5117188,0.1865234,0.7441406,0.6201172,0.8837891v0.2636719c-0.3251953,0.1386719-0.6972656,0.2167969-1.1630859,0.2167969
			c-0.4960938,0-0.7441406-0.2636719-0.7441406-0.7128906C82.7382812,81.3515625,82.8779297,80.359375,82.9560547,79.7392578z
			 M83.7001953,72.5771484c0-0.5117188,0.4033203-0.9609375,0.8681641-0.9609375
			c0.4023438,0,0.7128906,0.3095703,0.7128906,0.7441406c0,0.5263672-0.4189453,0.9609375-0.8681641,0.9609375
			C83.9941406,73.3212891,83.7001953,73.0419922,83.7001953,72.5771484z"/>
		<path style="&st2;" d="M85.6054688,81.0263672c0.4335938,0.4179688,0.9453125,0.6503906,1.5195312,0.6503906
			c0.7285156,0,1.3173828-0.4179688,1.3173828-1.0693359c0-0.5117188-0.2011719-0.8525391-0.9609375-1.5341797l-0.5429688-0.4960938
			c-0.7128906-0.6513672-0.9140625-1.0703125-0.9140625-1.7519531c0-1.0234375,0.9765625-2.046875,2.4023438-2.046875
			c1.1318359,0,1.6904297,0.3408203,1.6904297,0.8369141c0,0.2792969-0.109375,0.6044922-0.2792969,0.8066406
			c-0.4492188-0.4648438-1.1005859-0.7597656-1.6894531-0.7597656c-0.6826172,0-1.0390625,0.3720703-1.0390625,0.8681641
			c0,0.4492188,0.1855469,0.7128906,0.9609375,1.4111328l0.5888672,0.5263672
			c0.7441406,0.6669922,0.9921875,1.1162109,0.9921875,1.7988281c0,1.2246094-1.2402344,2.2939453-2.8681641,2.2939453
			c-0.9765625,0-1.4101562-0.3095703-1.4101562-0.8837891C85.3730469,81.3984375,85.4658203,81.2119141,85.6054688,81.0263672z"/>
		<path style="&st2;" d="M91.5732422,76.8710938l0.2011719-0.9921875c-0.3408203,0-0.5419922-0.015625-0.8681641-0.0458984
			v-0.2021484c0.4960938-0.6972656,1.2714844-1.3798828,2.0927734-1.8603516h0.2333984L92.96875,75.0419922h0.4492188
			c0.4335938,0,0.7753906-0.03125,1.1933594-0.1083984c0,0.6669922-0.3720703,0.9609375-1.3486328,0.9609375h-0.4335938
			l-0.2636719,1.6123047c-0.1240234,0.7441406-0.3105469,2.03125-0.3105469,2.6513672
			c0,1.0224609,0.5117188,1.4726562,1.1943359,1.4726562c0.2480469,0,0.4023438-0.03125,0.6357422-0.1083984v0.2792969
			c-0.1396484,0.3710938-0.6982422,0.7441406-1.4267578,0.7441406c-1.0234375,0-1.5654297-0.6826172-1.5654297-1.9072266
			C91.0927734,79.6777344,91.3251953,78.0654297,91.5732422,76.8710938z"/>
		<path style="&st2;" d="M98.0839844,74.7626953c1.0693359,0,1.6591797,0.5429688,1.6591797,1.5966797
			c0,1.8300781-1.8603516,2.9462891-3.7060547,2.9462891c0,1.875,0.4960938,2.3251953,1.3955078,2.3251953
			c0.5585938,0,1.3642578-0.3251953,1.6904297-0.7753906c0.0615234,0.0625,0.1542969,0.2021484,0.1542969,0.3720703
			c0,0.7441406-0.9921875,1.3642578-2.2480469,1.3642578c-1.3017578,0-2.2011719-0.8525391-2.2011719-2.6972656
			C94.828125,76.40625,96.5957031,74.7626953,98.0839844,74.7626953z M98.5029297,76.6386719
			c0-0.7285156-0.2949219-1.0078125-0.7441406-1.0078125c-0.6826172,0-1.6591797,1.1787109-1.6591797,2.9609375
			C97.5107422,78.5917969,98.5029297,77.8330078,98.5029297,76.6386719z"/>
		<path style="&st2;" d="M101.3378906,75.6777344l-0.9453125-0.2949219v-0.2939453
			c0.4960938-0.1865234,0.9609375-0.2636719,1.5039062-0.2636719c0.2011719,0,0.4492188,0.03125,0.6513672,0.1083984
			l-0.4658203,2.2480469h0.015625l0.8222656-1.3642578c0.4023438-0.6669922,0.8212891-0.9765625,1.3017578-0.9765625
			c0.3408203,0,0.5117188,0.2167969,0.5117188,0.5732422c0,0.2480469-0.0615234,0.5576172-0.1708984,0.8056641
			c-0.1542969-0.0458984-0.3095703-0.0615234-0.4804688-0.0615234c-0.9765625,0-1.953125,1.0693359-2.0927734,3.9375
			l-0.1240234,2.2636719h-1.2861328L101.3378906,75.6777344z"/>
		<path style="&st2;" d="M105.2441406,79.7392578l0.4960938-3.1464844l0.0771484-0.9150391l-0.9296875-0.2949219v-0.2939453
			c0.4960938-0.1865234,0.9921875-0.2636719,1.5498047-0.2636719c0.2792969,0,0.4960938,0.015625,0.6972656,0.0927734
			L106.4375,79.4755859c-0.0615234,0.4648438-0.1240234,1.2558594-0.1240234,1.6591797
			c0,0.5117188,0.1865234,0.7441406,0.6201172,0.8837891v0.2636719c-0.3251953,0.1386719-0.6972656,0.2167969-1.1621094,0.2167969
			c-0.4960938,0-0.7441406-0.2636719-0.7441406-0.7128906C105.0273438,81.3515625,105.1660156,80.359375,105.2441406,79.7392578z
			 M105.9882812,72.5771484c0-0.5117188,0.4023438-0.9609375,0.8681641-0.9609375
			c0.4033203,0,0.7128906,0.3095703,0.7128906,0.7441406c0,0.5263672-0.4189453,0.9609375-0.8681641,0.9609375
			C106.2822266,73.3212891,105.9882812,73.0419922,105.9882812,72.5771484z"/>
		<path style="&st2;" d="M111.4912109,74.7626953c1.0693359,0,1.6591797,0.5429688,1.6591797,1.5966797
			c0,1.8300781-1.8603516,2.9462891-3.7050781,2.9462891c0,1.875,0.4960938,2.3251953,1.3945312,2.3251953
			c0.5585938,0,1.3642578-0.3251953,1.6904297-0.7753906c0.0615234,0.0625,0.1542969,0.2021484,0.1542969,0.3720703
			c0,0.7441406-0.9921875,1.3642578-2.2470703,1.3642578c-1.3027344,0-2.2021484-0.8525391-2.2021484-2.6972656
			C108.2353516,76.40625,110.0029297,74.7626953,111.4912109,74.7626953z M111.9101562,76.6386719
			c0-0.7285156-0.2949219-1.0078125-0.7441406-1.0078125c-0.6826172,0-1.6591797,1.1787109-1.6591797,2.9609375
			C110.9179688,78.5917969,111.9101562,77.8330078,111.9101562,76.6386719z"/>
		<path style="&st2;" d="M116.6357422,75.6464844l-0.6660156-0.2636719v-0.3251953
			c0.4804688-0.1708984,0.8369141-0.2324219,1.2705078-0.2324219c0.2177734,0,0.4345703,0.03125,0.6357422,0.0927734
			l0.3408203,6.3408203h0.015625c1.1318359-1.3955078,1.9541016-3.5195312,1.9541016-5.1162109
			c0-0.4189453-0.2021484-0.6669922-0.5742188-0.8525391v-0.2480469c0.2636719-0.1396484,0.5742188-0.2324219,0.9619141-0.2324219
			c0.4960938,0,0.8369141,0.2636719,0.8369141,0.9296875c0,1.5976562-1.5039062,4.8681641-3.0078125,6.3105469
			c-0.2949219,0.2626953-0.5429688,0.4335938-0.8212891,0.5732422h-0.3105469L116.6357422,75.6464844z"/>
		<path style="&st2;" d="M121.9833984,79.8476562c0-3.1933594,1.8300781-5.0380859,3.9384766-5.0380859
			c0.4960938,0,1.2089844,0.1083984,1.7207031,0.2480469l-0.5429688,2.7128906
			c-0.1855469,0.8066406-0.3408203,2.2480469-0.3564453,2.9140625c0,0.9921875,0.2011719,1.1787109,0.7441406,1.2558594v0.3261719
			c-0.4033203,0.1396484-0.8994141,0.2324219-1.3798828,0.2324219c-0.2480469,0-0.4492188-0.046875-0.6513672-0.1083984
			l0.3564453-2.3105469h-0.0146484c-0.6044922,1.5351562-1.5820312,2.4960938-2.4033203,2.4960938
			C122.6660156,82.5761719,121.9833984,81.6308594,121.9833984,79.8476562z M125.875,78.34375l0.4335938-2.5732422
			c-0.2167969-0.0615234-0.5732422-0.0927734-0.8056641-0.0927734c-1.2558594,0-2.3251953,1.3173828-2.3251953,3.953125
			c0,1.3173828,0.4023438,1.8759766,0.7753906,1.8759766C124.6191406,81.5068359,125.5185547,80.4677734,125.875,78.34375z"/>
		<path style="&st2;" d="M129.59375,75.6777344l-0.9453125-0.2949219v-0.2939453
			c0.4960938-0.1865234,0.9609375-0.2636719,1.5351562-0.2636719c0.2011719,0,0.4179688,0.03125,0.6347656,0.1083984
			l-0.4960938,2.3720703h0.015625c0.7138672-1.5820312,1.7363281-2.5117188,2.7910156-2.5117188
			c0.6816406,0,1.2246094,0.4804688,1.2246094,1.4257812c0,0.4960938-0.1396484,1.2871094-0.2324219,1.9541016l-0.2792969,1.6738281
			c-0.046875,0.3564453-0.1240234,0.9619141-0.1240234,1.2871094c0,0.5117188,0.2480469,0.7128906,0.7285156,0.8056641v0.2636719
			c-0.3564453,0.1865234-0.7597656,0.2949219-1.2402344,0.2949219s-0.7597656-0.2636719-0.7597656-0.7128906
			c0-0.3876953,0.1083984-1.1474609,0.1865234-1.6435547l0.2949219-1.7832031
			c0.0771484-0.4804688,0.1542969-1.1474609,0.1542969-1.5654297c0-0.6972656-0.3095703-0.9306641-0.6816406-0.9306641
			c-0.8681641,0-2.1083984,1.6748047-2.1708984,3.8759766l-0.0927734,2.6201172h-1.3173828L129.59375,75.6777344z"/>
		<path style="&st2;" d="M137.9326172,82.0644531c0.2939453-0.1396484,0.5576172-0.4023438,0.6044922-0.8369141l0.9453125-7.9990234
			l-0.8369141-0.2480469v-0.3417969c0.8994141-0.1542969,1.984375-0.2480469,3.0537109-0.2480469
			c1.8457031,0,2.8681641,0.7910156,2.8681641,2.078125c0,1.3486328-0.9765625,2.4335938-2.4023438,2.7431641v0.015625
			c1.2861328,0,2.2939453,0.8837891,2.2939453,2.0625c0,1.953125-1.7363281,3.2089844-4.2167969,3.2089844
			c-1.0234375,0-1.6738281-0.03125-2.3095703-0.1708984V82.0644531z M140.6923828,81.6621094
			c1.3798828,0,2.4023438-0.8681641,2.4023438-2.1396484c0-1.1933594-0.7744141-1.8447266-2.8984375-1.8447266l-0.4960938,3.921875
			C140.0253906,81.6464844,140.3662109,81.6621094,140.6923828,81.6621094z M143.203125,74.6386719
			c0-0.9453125-0.7285156-1.4570312-1.7519531-1.4570312c-0.2783203,0-0.4492188,0-0.7441406,0.03125l-0.4492188,3.7509766
			C142.0722656,76.9638672,143.203125,76.0654297,143.203125,74.6386719z"/>
		<path style="&st2;" d="M146.1162109,79.7392578l0.4960938-3.1464844l0.0771484-0.9150391l-0.9296875-0.2949219v-0.2939453
			c0.4960938-0.1865234,0.9921875-0.2636719,1.5498047-0.2636719c0.2792969,0,0.4960938,0.015625,0.6982422,0.0927734
			l-0.6982422,4.5576172c-0.0615234,0.4648438-0.1240234,1.2558594-0.1240234,1.6591797
			c0,0.5117188,0.1865234,0.7441406,0.6201172,0.8837891v0.2636719c-0.3251953,0.1386719-0.6972656,0.2167969-1.1630859,0.2167969
			c-0.4960938,0-0.7441406-0.2636719-0.7441406-0.7128906C145.8984375,81.3515625,146.0380859,80.359375,146.1162109,79.7392578z
			 M146.8603516,72.5771484c0-0.5117188,0.4033203-0.9609375,0.8681641-0.9609375
			c0.4023438,0,0.7128906,0.3095703,0.7128906,0.7441406c0,0.5263672-0.4189453,0.9609375-0.8681641,0.9609375
			C147.1542969,73.3212891,146.8603516,73.0419922,146.8603516,72.5771484z"/>
		<path style="&st2;" d="M150.0839844,75.6777344l-0.9453125-0.2949219v-0.2939453
			c0.4960938-0.1865234,0.9609375-0.2636719,1.5351562-0.2636719c0.2011719,0,0.4179688,0.03125,0.6347656,0.1083984
			L150.8125,77.3056641h0.015625c0.7138672-1.5820312,1.7363281-2.5117188,2.7910156-2.5117188
			c0.6816406,0,1.2246094,0.4804688,1.2246094,1.4257812c0,0.4960938-0.1396484,1.2871094-0.2324219,1.9541016l-0.2792969,1.6738281
			c-0.046875,0.3564453-0.1240234,0.9619141-0.1240234,1.2871094c0,0.5117188,0.2480469,0.7128906,0.7285156,0.8056641v0.2636719
			c-0.3564453,0.1865234-0.7597656,0.2949219-1.2402344,0.2949219s-0.7597656-0.2636719-0.7597656-0.7128906
			c0-0.3876953,0.1083984-1.1474609,0.1865234-1.6435547l0.2949219-1.7832031
			c0.0771484-0.4804688,0.1542969-1.1474609,0.1542969-1.5654297c0-0.6972656-0.3095703-0.9306641-0.6816406-0.9306641
			c-0.8681641,0-2.1083984,1.6748047-2.1708984,3.8759766l-0.0927734,2.6201172h-1.3173828L150.0839844,75.6777344z"/>
		<path style="&st2;" d="M157.1210938,75.6777344l-0.9453125-0.2949219v-0.2939453
			c0.4960938-0.1865234,0.9609375-0.2636719,1.5351562-0.2636719c0.2011719,0,0.4179688,0.03125,0.6347656,0.1083984
			l-0.4960938,2.3720703h0.015625c0.7138672-1.5820312,1.7363281-2.5117188,2.7910156-2.5117188
			c0.6816406,0,1.2246094,0.4804688,1.2246094,1.4257812c0,0.4960938-0.1396484,1.2871094-0.2324219,1.9541016l-0.2792969,1.6738281
			c-0.046875,0.3564453-0.1240234,0.9619141-0.1240234,1.2871094c0,0.5117188,0.2480469,0.7128906,0.7285156,0.8056641v0.2636719
			c-0.3564453,0.1865234-0.7597656,0.2949219-1.2402344,0.2949219s-0.7597656-0.2636719-0.7597656-0.7128906
			c0-0.3876953,0.1083984-1.1474609,0.1865234-1.6435547l0.2949219-1.7832031
			c0.0771484-0.4804688,0.1542969-1.1474609,0.1542969-1.5654297c0-0.6972656-0.3095703-0.9306641-0.6816406-0.9306641
			c-0.8681641,0-2.1083984,1.6748047-2.1708984,3.8759766l-0.0927734,2.6201172h-1.3173828L157.1210938,75.6777344z"/>
		<path style="&st2;" d="M166.4375,74.7626953c1.0693359,0,1.6591797,0.5429688,1.6591797,1.5966797
			c0,1.8300781-1.8603516,2.9462891-3.7060547,2.9462891c0,1.875,0.4960938,2.3251953,1.3955078,2.3251953
			c0.5585938,0,1.3642578-0.3251953,1.6904297-0.7753906c0.0615234,0.0625,0.1542969,0.2021484,0.1542969,0.3720703
			c0,0.7441406-0.9921875,1.3642578-2.2480469,1.3642578c-1.3017578,0-2.2011719-0.8525391-2.2011719-2.6972656
			C163.1816406,76.40625,164.9492188,74.7626953,166.4375,74.7626953z M166.8564453,76.6386719
			c0-0.7285156-0.2949219-1.0078125-0.7441406-1.0078125c-0.6826172,0-1.6591797,1.1787109-1.6591797,2.9609375
			C165.8642578,78.5917969,166.8564453,77.8330078,166.8564453,76.6386719z"/>
		<path style="&st2;" d="M169.7070312,75.6777344l-0.9453125-0.2949219v-0.2939453
			c0.4960938-0.1865234,0.9609375-0.2636719,1.5351562-0.2636719c0.2011719,0,0.4179688,0.03125,0.6347656,0.1083984
			l-0.4960938,2.3720703h0.015625c0.7138672-1.5820312,1.7363281-2.5117188,2.7910156-2.5117188
			c0.6816406,0,1.2246094,0.4804688,1.2246094,1.4257812c0,0.4960938-0.1396484,1.2871094-0.2324219,1.9541016l-0.2792969,1.6738281
			c-0.046875,0.3564453-0.1240234,0.9619141-0.1240234,1.2871094c0,0.5117188,0.2480469,0.7128906,0.7285156,0.8056641v0.2636719
			c-0.3564453,0.1865234-0.7597656,0.2949219-1.2402344,0.2949219s-0.7597656-0.2636719-0.7597656-0.7128906
			c0-0.3876953,0.1083984-1.1474609,0.1865234-1.6435547l0.2949219-1.7832031
			c0.0771484-0.4804688,0.1542969-1.1474609,0.1542969-1.5654297c0-0.6972656-0.3095703-0.9306641-0.6816406-0.9306641
			c-0.8681641,0-2.1083984,1.6748047-2.1708984,3.8759766L170.25,82.359375h-1.3173828L169.7070312,75.6777344z"/>
		<path style="&st2;" d="M176.2011719,79.7392578l1.0849609-7.6894531l-0.9765625-0.2949219v-0.2939453
			c0.4960938-0.1708984,0.9609375-0.2480469,1.5498047-0.2480469c0.2636719,0,0.5273438,0.03125,0.7138672,0.0927734
			l-1.1630859,8.1240234c-0.0771484,0.4960938-0.1240234,1.2402344-0.1240234,1.7050781
			c0,0.5117188,0.2480469,0.7441406,0.6972656,0.8837891v0.2636719c-0.3251953,0.1386719-0.7285156,0.2167969-1.1933594,0.2167969
			c-0.5117188,0-0.7753906-0.2636719-0.7753906-0.7285156C176.0146484,81.3359375,176.1230469,80.328125,176.2011719,79.7392578z"/>
		<path style="&st2;" d="M179.1767578,79.8476562c0-3.1933594,1.8300781-5.0380859,3.9384766-5.0380859
			c0.4960938,0,1.2089844,0.1083984,1.7207031,0.2480469l-0.5429688,2.7128906
			c-0.1855469,0.8066406-0.3408203,2.2480469-0.3564453,2.9140625c0,0.9921875,0.2011719,1.1787109,0.7441406,1.2558594v0.3261719
			c-0.4033203,0.1396484-0.8994141,0.2324219-1.3798828,0.2324219c-0.2480469,0-0.4492188-0.046875-0.6513672-0.1083984
			l0.3564453-2.3105469h-0.0146484c-0.6044922,1.5351562-1.5820312,2.4960938-2.4033203,2.4960938
			C179.859375,82.5761719,179.1767578,81.6308594,179.1767578,79.8476562z M183.0683594,78.34375l0.4335938-2.5732422
			c-0.2167969-0.0615234-0.5732422-0.0927734-0.8056641-0.0927734c-1.2558594,0-2.3251953,1.3173828-2.3251953,3.953125
			c0,1.3173828,0.4023438,1.8759766,0.7753906,1.8759766C181.8125,81.5068359,182.7119141,80.4677734,183.0683594,78.34375z"/>
		<path style="&st2;" d="M186.7871094,75.6777344l-0.9453125-0.2949219v-0.2939453
			c0.4960938-0.1865234,0.9609375-0.2636719,1.5351562-0.2636719c0.2011719,0,0.4179688,0.03125,0.6347656,0.1083984
			l-0.4960938,2.3720703h0.015625c0.7138672-1.5820312,1.7363281-2.5117188,2.7910156-2.5117188
			c0.6816406,0,1.2246094,0.4804688,1.2246094,1.4257812c0,0.4960938-0.1396484,1.2871094-0.2324219,1.9541016l-0.2792969,1.6738281
			c-0.046875,0.3564453-0.1240234,0.9619141-0.1240234,1.2871094c0,0.5117188,0.2480469,0.7128906,0.7285156,0.8056641v0.2636719
			c-0.3564453,0.1865234-0.7597656,0.2949219-1.2402344,0.2949219s-0.7597656-0.2636719-0.7597656-0.7128906
			c0-0.3876953,0.1083984-1.1474609,0.1865234-1.6435547l0.2949219-1.7832031
			c0.0771484-0.4804688,0.1542969-1.1474609,0.1542969-1.5654297c0-0.6972656-0.3095703-0.9306641-0.6816406-0.9306641
			c-0.8681641,0-2.1083984,1.6748047-2.1708984,3.8759766l-0.0927734,2.6201172h-1.3173828L186.7871094,75.6777344z"/>
		<path style="&st2;" d="M192.8320312,79.8476562c0-3.1162109,1.7832031-5.0380859,3.8603516-5.0380859
			c0.1865234,0,0.4189453,0.015625,0.5888672,0.03125l0.4501953-2.7910156l-1.0234375-0.2949219v-0.2939453
			c0.4804688-0.1708984,0.9765625-0.2480469,1.6435547-0.2480469c0.2636719,0,0.5117188,0.03125,0.7128906,0.0927734
			l-1.1318359,6.4179688c-0.1083984,0.6513672-0.3408203,2.3720703-0.3408203,2.9609375
			c0,1.0078125,0.2167969,1.1787109,0.7441406,1.2558594v0.3261719c-0.4804688,0.1542969-0.8681641,0.2324219-1.3798828,0.2324219
			c-0.2636719,0-0.4648438-0.046875-0.6513672-0.1083984l0.3876953-2.3408203h-0.015625
			c-0.5732422,1.4414062-1.5498047,2.5263672-2.4335938,2.5263672
			C193.5458984,82.5761719,192.8320312,81.6621094,192.8320312,79.8476562z M196.7236328,78.3291016l0.4345703-2.5742188
			c-0.2021484-0.0458984-0.4960938-0.0771484-0.7441406-0.0771484c-1.2871094,0-2.3876953,1.2089844-2.3876953,3.953125
			c0,1.2871094,0.3720703,1.8759766,0.7744141,1.8759766C195.421875,81.5068359,196.3984375,80.4990234,196.7236328,78.3291016z"/>
		<path style="&st2;" d="M199.140625,81.0263672c0.4335938,0.4179688,0.9453125,0.6503906,1.5195312,0.6503906
			c0.7285156,0,1.3173828-0.4179688,1.3173828-1.0693359c0-0.5117188-0.2011719-0.8525391-0.9609375-1.5341797l-0.5429688-0.4960938
			c-0.7128906-0.6513672-0.9140625-1.0703125-0.9140625-1.7519531c0-1.0234375,0.9765625-2.046875,2.4023438-2.046875
			c1.1318359,0,1.6904297,0.3408203,1.6904297,0.8369141c0,0.2792969-0.109375,0.6044922-0.2792969,0.8066406
			c-0.4492188-0.4648438-1.1005859-0.7597656-1.6894531-0.7597656c-0.6826172,0-1.0390625,0.3720703-1.0390625,0.8681641
			c0,0.4492188,0.1855469,0.7128906,0.9609375,1.4111328l0.5888672,0.5263672
			c0.7441406,0.6669922,0.9921875,1.1162109,0.9921875,1.7988281c0,1.2246094-1.2402344,2.2939453-2.8681641,2.2939453
			c-0.9765625,0-1.4101562-0.3095703-1.4101562-0.8837891C198.9082031,81.3984375,199.0009766,81.2119141,199.140625,81.0263672z"/>
		<path style="&st2;" d="M207.5732422,74.7626953c1.0693359,0,1.6591797,0.5429688,1.6591797,1.5966797
			c0,1.8300781-1.8603516,2.9462891-3.7050781,2.9462891c0,1.875,0.4960938,2.3251953,1.3945312,2.3251953
			c0.5585938,0,1.3642578-0.3251953,1.6904297-0.7753906c0.0615234,0.0625,0.1542969,0.2021484,0.1542969,0.3720703
			c0,0.7441406-0.9921875,1.3642578-2.2470703,1.3642578c-1.3027344,0-2.2021484-0.8525391-2.2021484-2.6972656
			C204.3173828,76.40625,206.0849609,74.7626953,207.5732422,74.7626953z M207.9921875,76.6386719
			c0-0.7285156-0.2949219-1.0078125-0.7441406-1.0078125c-0.6826172,0-1.6591797,1.1787109-1.6591797,2.9609375
			C207,78.5917969,207.9921875,77.8330078,207.9921875,76.6386719z"/>
		<path style="&st2;" d="M211.8183594,82.0341797l5.1318359-8.7128906h-2.2783203
			c-0.6669922,0-1.0390625,0.2792969-1.4423828,1.0693359l-0.1083984,0.2177734h-0.4804688l0.3251953-2.109375H218.5625v0.3261719
			l-5.1005859,8.7128906h2.6044922c0.7441406,0,1.1162109-0.2949219,1.4111328-1.0078125l0.1240234-0.2949219h0.5273438
			l-0.3574219,2.1240234h-5.953125V82.0341797z"/>
		<path style="&st2;" d="M218.9335938,79.8476562c0-3.1933594,1.8300781-5.0380859,3.9384766-5.0380859
			c0.4960938,0,1.2089844,0.1083984,1.7207031,0.2480469l-0.5429688,2.7128906
			c-0.1855469,0.8066406-0.3408203,2.2480469-0.3564453,2.9140625c0,0.9921875,0.2011719,1.1787109,0.7441406,1.2558594v0.3261719
			c-0.4033203,0.1396484-0.8994141,0.2324219-1.3798828,0.2324219c-0.2480469,0-0.4492188-0.046875-0.6513672-0.1083984
			l0.3574219-2.3105469h-0.015625c-0.6054688,1.5351562-1.5820312,2.4960938-2.4033203,2.4960938
			C219.6162109,82.5761719,218.9335938,81.6308594,218.9335938,79.8476562z M222.8251953,78.34375l0.4345703-2.5732422
			c-0.2177734-0.0615234-0.5742188-0.0927734-0.8066406-0.0927734c-1.2558594,0-2.3251953,1.3173828-2.3251953,3.953125
			c0,1.3173828,0.4033203,1.8759766,0.7744141,1.8759766C221.5693359,81.5068359,222.46875,80.4677734,222.8251953,78.34375z"/>
		<path style="&st2;" d="M226.25,78.3134766l0.6357422-6.2636719l-0.9619141-0.2949219v-0.2939453
			c0.4804688-0.1708984,0.9462891-0.2480469,1.5820312-0.2480469c0.2480469,0,0.4960938,0.03125,0.6972656,0.0927734
			l-0.8994141,6.8056641h0.015625l0.8681641-0.6816406c0.6513672-0.5117188,1.4570312-1.7519531,1.6894531-2.7128906
			c0.7597656,0,1.0390625,0.2011719,1.0390625,0.5107422c0,0.5898438-0.9765625,1.7363281-2.1240234,2.5117188l-0.6660156,0.4648438
			l1.953125,2.9921875c0.2636719,0.3876953,0.5576172,0.6357422,1.0078125,0.8378906v0.2636719
			c-0.2949219,0.1699219-0.5429688,0.2324219-0.9619141,0.2324219c-0.4648438,0-0.8828125-0.2324219-1.2861328-0.9765625
			l-1.5966797-2.9462891h-0.015625l-0.2636719,3.7519531h-1.3330078L226.25,78.3134766z"/>
		<path style="&st2;" d="M234.6972656,74.7626953c1.0693359,0,1.6591797,0.5429688,1.6591797,1.5966797
			c0,1.8300781-1.8603516,2.9462891-3.7060547,2.9462891c0,1.875,0.4960938,2.3251953,1.3955078,2.3251953
			c0.5585938,0,1.3642578-0.3251953,1.6904297-0.7753906c0.0615234,0.0625,0.1542969,0.2021484,0.1542969,0.3720703
			c0,0.7441406-0.9921875,1.3642578-2.2480469,1.3642578c-1.3017578,0-2.2011719-0.8525391-2.2011719-2.6972656
			C231.4414062,76.40625,233.2089844,74.7626953,234.6972656,74.7626953z M235.1162109,76.6386719
			c0-0.7285156-0.2949219-1.0078125-0.7441406-1.0078125c-0.6826172,0-1.6591797,1.1787109-1.6591797,2.9609375
			C234.1240234,78.5917969,235.1162109,77.8330078,235.1162109,76.6386719z"/>
		<path style="&st2;" d="M237.9667969,75.6777344l-0.9453125-0.2949219v-0.2939453
			c0.4960938-0.1865234,0.9609375-0.2636719,1.5351562-0.2636719c0.2011719,0,0.4179688,0.03125,0.6347656,0.1083984
			l-0.4960938,2.3720703h0.015625c0.7138672-1.5820312,1.7363281-2.5117188,2.7910156-2.5117188
			c0.6816406,0,1.2246094,0.4804688,1.2246094,1.4257812c0,0.4960938-0.1396484,1.2871094-0.2324219,1.9541016l-0.2792969,1.6738281
			c-0.046875,0.3564453-0.1240234,0.9619141-0.1240234,1.2871094c0,0.5117188,0.2480469,0.7128906,0.7285156,0.8056641v0.2636719
			c-0.3564453,0.1865234-0.7597656,0.2949219-1.2402344,0.2949219s-0.7597656-0.2636719-0.7597656-0.7128906
			c0-0.3876953,0.1083984-1.1474609,0.1865234-1.6435547l0.2949219-1.7832031
			c0.0771484-0.4804688,0.1542969-1.1474609,0.1542969-1.5654297c0-0.6972656-0.3095703-0.9306641-0.6816406-0.9306641
			c-0.8681641,0-2.1083984,1.6748047-2.1708984,3.8759766l-0.0927734,2.6201172h-1.3173828L237.9667969,75.6777344z"/>
		<path style="&st2;" d="M249.7626953,74.7626953c1.0693359,0,1.6591797,0.5429688,1.6591797,1.5966797
			c0,1.8300781-1.8603516,2.9462891-3.7050781,2.9462891c0,1.875,0.4960938,2.3251953,1.3945312,2.3251953
			c0.5585938,0,1.3642578-0.3251953,1.6904297-0.7753906c0.0615234,0.0625,0.1542969,0.2021484,0.1542969,0.3720703
			c0,0.7441406-0.9921875,1.3642578-2.2470703,1.3642578c-1.3027344,0-2.2021484-0.8525391-2.2021484-2.6972656
			C246.5068359,76.40625,248.2744141,74.7626953,249.7626953,74.7626953z M250.1816406,76.6386719
			c0-0.7285156-0.2949219-1.0078125-0.7441406-1.0078125c-0.6826172,0-1.6591797,1.1787109-1.6591797,2.9609375
			C249.1894531,78.5917969,250.1816406,77.8330078,250.1816406,76.6386719z"/>
		<path style="&st2;" d="M253.0322266,75.6777344l-0.9453125-0.2949219v-0.2939453
			c0.4960938-0.1865234,0.9609375-0.2636719,1.5351562-0.2636719c0.2011719,0,0.4179688,0.03125,0.6357422,0.1083984
			l-0.4960938,2.3720703h0.0146484c0.7138672-1.5820312,1.7363281-2.5117188,2.7910156-2.5117188
			c0.6816406,0,1.2246094,0.4804688,1.2246094,1.4257812c0,0.4960938-0.1396484,1.2871094-0.2324219,1.9541016l-0.2792969,1.6738281
			c-0.0458984,0.3564453-0.1240234,0.9619141-0.1240234,1.2871094c0,0.5117188,0.2480469,0.7128906,0.7285156,0.8056641v0.2636719
			c-0.3564453,0.1865234-0.7597656,0.2949219-1.2402344,0.2949219s-0.7597656-0.2636719-0.7597656-0.7128906
			c0-0.3876953,0.109375-1.1474609,0.1865234-1.6435547l0.2939453-1.7832031
			c0.078125-0.4804688,0.1552734-1.1474609,0.1552734-1.5654297c0-0.6972656-0.3095703-0.9306641-0.6816406-0.9306641
			c-0.8681641,0-2.1083984,1.6748047-2.1708984,3.8759766l-0.0927734,2.6201172h-1.3173828L253.0322266,75.6777344z"/>
		<path style="&st2;" d="M61.5195312,99.6640625c0.2788086-0.1083984,0.5581055-0.3564453,0.5888672-0.6816406l0.9458008-8.1855469
			l-0.8681641-0.2480469v-0.3105469c0.465332-0.1699219,0.8681641-0.2324219,1.4262695-0.2324219
			c0.449707,0,0.8837891,0.046875,1.2089844,0.1552734v0.2636719c-0.2944336,0.1083984-0.5424805,0.3408203-0.5732422,0.6660156
			l-0.9614258,8.2011719l0.8681641,0.2480469v0.3105469c-0.449707,0.1552734-0.8525391,0.2324219-1.4106445,0.2324219
			c-0.449707,0-0.8994141-0.0625-1.2246094-0.1552734V99.6640625z M63.96875,94.9511719l0.015625-0.0771484l1.3955078-1.2402344
			c1.1777344-1.0546875,1.7363281-1.984375,1.7363281-2.6044922c0-0.3095703-0.1396484-0.4804688-0.5585938-0.6044922v-0.2324219
			c0.3569336-0.1552734,0.6826172-0.2324219,1.0698242-0.2324219c0.449707,0,0.7597656,0.2480469,0.7597656,0.6816406
			c0,0.9150391-0.6665039,2-2.0463867,3.1777344L65.2089844,94.78125l1.4882812,2.6972656
			c0.7753906,1.3955078,1.4418945,1.9072266,1.984375,1.984375v0.3251953
			c-0.3720703,0.2636719-0.6508789,0.3417969-1.1318359,0.3417969c-0.5888672,0-1.0849609-0.3574219-1.953125-2.046875
			L63.96875,94.9511719z"/>
		<path style="&st2;" d="M72.5869141,92.3466797c1.2558594,0,2.1542969,0.8222656,2.1542969,2.5898438
			c0,3.2861328-1.7978516,5.2236328-3.3330078,5.2236328c-1.2089844,0-2.2167969-0.9296875-2.2167969-2.7587891
			C69.1914062,94.1298828,70.8813477,92.3466797,72.5869141,92.3466797z M73.4702148,95.2460938
			c0-1.3798828-0.5112305-2-1.1938477-2c-0.8369141,0-1.8603516,1.4267578-1.8603516,3.6123047
			c0,1.7675781,0.5893555,2.4335938,1.2714844,2.4335938C72.4316406,99.2919922,73.4702148,98.0058594,73.4702148,95.2460938z"/>
		<path style="&st2;" d="M76.7558594,93.2773438l-0.9453125-0.2949219v-0.2939453
			c0.4960938-0.1865234,0.9609375-0.2636719,1.5351562-0.2636719c0.2011719,0,0.4179688,0.03125,0.6347656,0.1083984
			l-0.4960938,2.3720703H77.5c0.7138672-1.5820312,1.7363281-2.5117188,2.7910156-2.5117188
			c0.6816406,0,1.2246094,0.4804688,1.2246094,1.4257812c0,0.4960938-0.1396484,1.2871094-0.2324219,1.9541016l-0.2792969,1.6738281
			c-0.046875,0.3564453-0.1240234,0.9619141-0.1240234,1.2871094c0,0.5117188,0.2480469,0.7128906,0.7285156,0.8056641v0.2636719
			c-0.3564453,0.1865234-0.7597656,0.2949219-1.2402344,0.2949219s-0.7597656-0.2636719-0.7597656-0.7128906
			c0-0.3876953,0.1083984-1.1474609,0.1865234-1.6435547l0.2949219-1.7832031
			c0.0771484-0.4804688,0.1542969-1.1474609,0.1542969-1.5654297c0-0.6972656-0.3095703-0.9306641-0.6816406-0.9306641
			c-0.8681641,0-2.1083984,1.6748047-2.1708984,3.8759766l-0.0927734,2.6201172h-1.3173828L76.7558594,93.2773438z"/>
		<path style="&st2;" d="M83.25,97.3388672l0.4960938-3.1464844l0.0771484-0.9150391l-0.9296875-0.2949219v-0.2939453
			c0.4960938-0.1865234,0.9921875-0.2636719,1.5498047-0.2636719c0.2792969,0,0.4960938,0.015625,0.6972656,0.0927734
			l-0.6972656,4.5576172c-0.0615234,0.4648438-0.1240234,1.2558594-0.1240234,1.6591797
			c0,0.5117188,0.1865234,0.7441406,0.6201172,0.8837891v0.2636719c-0.3251953,0.1386719-0.6972656,0.2167969-1.1621094,0.2167969
			c-0.4960938,0-0.7441406-0.2636719-0.7441406-0.7128906C83.0332031,98.9511719,83.171875,97.9589844,83.25,97.3388672z
			 M83.9941406,90.1767578c0-0.5117188,0.4023438-0.9609375,0.8681641-0.9609375
			c0.4033203,0,0.7128906,0.3095703,0.7128906,0.7441406c0,0.5263672-0.4189453,0.9609375-0.8681641,0.9609375
			C84.2880859,90.9208984,83.9941406,90.6416016,83.9941406,90.1767578z"/>
		<path style="&st2;" d="M87.2177734,93.2773438l-0.9453125-0.2949219v-0.2939453
			c0.4960938-0.1865234,0.9609375-0.2636719,1.5351562-0.2636719c0.2011719,0,0.4179688,0.03125,0.6357422,0.1083984
			l-0.4960938,2.3720703h0.0146484c0.7138672-1.5820312,1.7363281-2.5117188,2.7910156-2.5117188
			c0.6816406,0,1.2246094,0.4804688,1.2246094,1.4257812c0,0.4960938-0.1396484,1.2871094-0.2324219,1.9541016l-0.2792969,1.6738281
			c-0.0458984,0.3564453-0.1240234,0.9619141-0.1240234,1.2871094c0,0.5117188,0.2480469,0.7128906,0.7285156,0.8056641v0.2636719
			c-0.3564453,0.1865234-0.7597656,0.2949219-1.2402344,0.2949219s-0.7597656-0.2636719-0.7597656-0.7128906
			c0-0.3876953,0.109375-1.1474609,0.1865234-1.6435547l0.2939453-1.7832031
			c0.078125-0.4804688,0.1552734-1.1474609,0.1552734-1.5654297c0-0.6972656-0.3095703-0.9306641-0.6816406-0.9306641
			c-0.8681641,0-2.1083984,1.6748047-2.1708984,3.8759766l-0.0927734,2.6201172h-1.3173828L87.2177734,93.2773438z"/>
		<path style="&st2;" d="M93.9609375,95.9130859l0.6357422-6.2636719l-0.9619141-0.2949219v-0.2939453
			c0.4804688-0.1708984,0.9462891-0.2480469,1.5820312-0.2480469c0.2480469,0,0.4960938,0.03125,0.6972656,0.0927734
			l-0.8994141,6.8056641h0.015625l0.8681641-0.6816406c0.6513672-0.5117188,1.4570312-1.7519531,1.6894531-2.7128906
			c0.7597656,0,1.0390625,0.2011719,1.0390625,0.5107422c0,0.5898438-0.9765625,1.7363281-2.1240234,2.5117188l-0.6660156,0.4648438
			l1.953125,2.9921875c0.2636719,0.3876953,0.5576172,0.6357422,1.0078125,0.8378906v0.2636719
			c-0.2949219,0.1699219-0.5429688,0.2324219-0.9619141,0.2324219c-0.4648438,0-0.8828125-0.2324219-1.2861328-0.9765625
			l-1.5966797-2.9462891H94.9375l-0.2636719,3.7519531h-1.3330078L93.9609375,95.9130859z"/>
		<path style="&st2;" d="M100.1132812,93.2773438l-0.9453125-0.2949219v-0.2939453
			c0.4960938-0.1865234,0.9609375-0.2636719,1.5039062-0.2636719c0.2011719,0,0.4492188,0.03125,0.6513672,0.1083984
			l-0.4658203,2.2480469h0.015625l0.8222656-1.3642578c0.4023438-0.6669922,0.8212891-0.9765625,1.3017578-0.9765625
			c0.3408203,0,0.5117188,0.2167969,0.5117188,0.5732422c0,0.2480469-0.0615234,0.5576172-0.1708984,0.8056641
			c-0.1542969-0.0458984-0.3095703-0.0615234-0.4804688-0.0615234c-0.9765625,0-1.953125,1.0693359-2.0927734,3.9375
			l-0.1240234,2.2636719h-1.2861328L100.1132812,93.2773438z"/>
		<path style="&st2;" d="M104.0205078,97.3388672l0.4960938-3.1464844l0.0771484-0.9150391l-0.9296875-0.2949219v-0.2939453
			c0.4960938-0.1865234,0.9921875-0.2636719,1.5498047-0.2636719c0.2792969,0,0.4960938,0.015625,0.6982422,0.0927734
			l-0.6982422,4.5576172c-0.0615234,0.4648438-0.1240234,1.2558594-0.1240234,1.6591797
			c0,0.5117188,0.1865234,0.7441406,0.6201172,0.8837891v0.2636719c-0.3251953,0.1386719-0.6972656,0.2167969-1.1630859,0.2167969
			c-0.4960938,0-0.7441406-0.2636719-0.7441406-0.7128906C103.8027344,98.9511719,103.9423828,97.9589844,104.0205078,97.3388672z
			 M104.7646484,90.1767578c0-0.5117188,0.4033203-0.9609375,0.8681641-0.9609375
			c0.4023438,0,0.7128906,0.3095703,0.7128906,0.7441406c0,0.5263672-0.4189453,0.9609375-0.8681641,0.9609375
			C105.0585938,90.9208984,104.7646484,90.6416016,104.7646484,90.1767578z"/>
		<path style="&st2;" d="M107.8632812,94.2070312l0.046875-0.9296875l-0.9453125-0.2949219v-0.2939453
			c0.4960938-0.1865234,1.0078125-0.2636719,1.5341797-0.2636719c0.2480469,0,0.4960938,0.03125,0.6982422,0.0927734
			l-0.9921875,8.3720703c-0.2636719,2.1074219-1.1318359,2.8984375-2.1552734,2.8984375
			c-0.4033203,0-0.8681641-0.1699219-1.0693359-0.4179688v-0.2792969c1.0224609,0,1.8447266-0.5898438,2.0302734-2.1396484
			L107.8632812,94.2070312z M108.0498047,90.1767578c0-0.5117188,0.4033203-0.9609375,0.8681641-0.9609375
			c0.3876953,0,0.7128906,0.3095703,0.7128906,0.7441406c0,0.5263672-0.4179688,0.9609375-0.8681641,0.9609375
			C108.34375,90.9208984,108.0498047,90.6416016,108.0498047,90.1767578z"/>
		<path style="&st2;" d="M111.0263672,95.9130859l0.6357422-6.2636719l-0.9619141-0.2949219v-0.2939453
			c0.4814453-0.1708984,0.9462891-0.2480469,1.5820312-0.2480469c0.2480469,0,0.4960938,0.03125,0.6972656,0.0927734
			l-0.8994141,6.8056641h0.015625l0.8681641-0.6816406c0.6513672-0.5117188,1.4570312-1.7519531,1.6904297-2.7128906
			c0.7587891,0,1.0380859,0.2011719,1.0380859,0.5107422c0,0.5898438-0.9765625,1.7363281-2.1240234,2.5117188l-0.6660156,0.4648438
			l1.953125,2.9921875c0.2636719,0.3876953,0.5576172,0.6357422,1.0078125,0.8378906v0.2636719
			c-0.2949219,0.1699219-0.5429688,0.2324219-0.9609375,0.2324219c-0.4658203,0-0.8837891-0.2324219-1.2871094-0.9765625
			l-1.5966797-2.9462891h-0.015625l-0.2636719,3.7519531H110.40625L111.0263672,95.9130859z"/>
		<path style="&st2;" d="M116.0322266,98.6259766c0.4345703,0.4179688,0.9453125,0.6503906,1.5195312,0.6503906
			c0.7285156,0,1.3173828-0.4179688,1.3173828-1.0693359c0-0.5117188-0.2011719-0.8525391-0.9609375-1.5341797l-0.5429688-0.4960938
			c-0.7128906-0.6513672-0.9140625-1.0703125-0.9140625-1.7519531c0-1.0234375,0.9765625-2.046875,2.4023438-2.046875
			c1.1318359,0,1.6904297,0.3408203,1.6904297,0.8369141c0,0.2792969-0.1083984,0.6044922-0.2792969,0.8066406
			c-0.4501953-0.4648438-1.1005859-0.7597656-1.6904297-0.7597656c-0.6816406,0-1.0380859,0.3720703-1.0380859,0.8681641
			c0,0.4492188,0.1855469,0.7128906,0.9609375,1.4111328l0.5888672,0.5263672
			c0.7441406,0.6669922,0.9921875,1.1162109,0.9921875,1.7988281c0,1.2246094-1.2402344,2.2939453-2.8671875,2.2939453
			c-0.9775391,0-1.4111328-0.3095703-1.4111328-0.8837891C115.7998047,98.9980469,115.8925781,98.8115234,116.0322266,98.6259766z"
			/>
		<path style="&st2;" d="M122.1699219,93.2773438l-0.9453125-0.2949219v-0.2939453
			c0.4960938-0.1865234,0.9609375-0.2636719,1.5039062-0.2636719c0.2011719,0,0.4492188,0.03125,0.6513672,0.1083984
			l-0.4658203,2.2480469h0.015625l0.8222656-1.3642578c0.4023438-0.6669922,0.8212891-0.9765625,1.3017578-0.9765625
			c0.3408203,0,0.5117188,0.2167969,0.5117188,0.5732422c0,0.2480469-0.0615234,0.5576172-0.1708984,0.8056641
			c-0.1542969-0.0458984-0.3095703-0.0615234-0.4804688-0.0615234c-0.9765625,0-1.953125,1.0693359-2.0927734,3.9375
			l-0.1240234,2.2636719h-1.2861328L122.1699219,93.2773438z"/>
		<path style="&st2;" d="M128.8974609,92.3623047c1.0693359,0,1.6591797,0.5429688,1.6591797,1.5966797
			c0,1.8300781-1.8603516,2.9462891-3.7050781,2.9462891c0,1.875,0.4960938,2.3251953,1.3945312,2.3251953
			c0.5585938,0,1.3642578-0.3251953,1.6904297-0.7753906c0.0615234,0.0625,0.1542969,0.2021484,0.1542969,0.3720703
			c0,0.7441406-0.9921875,1.3642578-2.2470703,1.3642578c-1.3027344,0-2.2021484-0.8525391-2.2021484-2.6972656
			C125.6416016,94.0058594,127.4091797,92.3623047,128.8974609,92.3623047z M129.3164062,94.2382812
			c0-0.7285156-0.2949219-1.0078125-0.7441406-1.0078125c-0.6826172,0-1.6591797,1.1787109-1.6591797,2.9609375
			C128.3242188,96.1914062,129.3164062,95.4326172,129.3164062,94.2382812z"/>
		<path style="&st2;" d="M131.625,97.3388672l1.0849609-7.6894531l-0.9765625-0.2949219v-0.2939453
			c0.4960938-0.1708984,0.9609375-0.2480469,1.5498047-0.2480469c0.2636719,0,0.5273438,0.03125,0.7138672,0.0927734
			l-1.1630859,8.1240234c-0.0771484,0.4960938-0.1240234,1.2402344-0.1240234,1.7050781
			c0,0.5117188,0.2480469,0.7441406,0.6972656,0.8837891v0.2636719c-0.3251953,0.1386719-0.7285156,0.2167969-1.1933594,0.2167969
			c-0.5117188,0-0.7753906-0.2636719-0.7753906-0.7285156C131.4384766,98.9355469,131.546875,97.9277344,131.625,97.3388672z"/>
		<path style="&st2;" d="M134.6005859,97.4472656c0-3.1933594,1.8300781-5.0380859,3.9384766-5.0380859
			c0.4960938,0,1.2089844,0.1083984,1.7207031,0.2480469l-0.5429688,2.7128906
			c-0.1855469,0.8066406-0.3408203,2.2480469-0.3564453,2.9140625c0,0.9921875,0.2011719,1.1787109,0.7441406,1.2558594v0.3261719
			c-0.4033203,0.1396484-0.8994141,0.2324219-1.3798828,0.2324219c-0.2480469,0-0.4492188-0.046875-0.6513672-0.1083984
			l0.3564453-2.3105469h-0.0146484c-0.6044922,1.5351562-1.5820312,2.4960938-2.4033203,2.4960938
			C135.2832031,100.1757812,134.6005859,99.2304688,134.6005859,97.4472656z M138.4921875,95.9433594l0.4335938-2.5732422
			c-0.2167969-0.0615234-0.5732422-0.0927734-0.8056641-0.0927734c-1.2558594,0-2.3251953,1.3173828-2.3251953,3.953125
			c0,1.3173828,0.4023438,1.8759766,0.7753906,1.8759766C137.2363281,99.1064453,138.1357422,98.0673828,138.4921875,95.9433594z"/>
		<path style="&st2;" d="M142.0253906,94.4707031l0.2011719-0.9921875c-0.3408203,0-0.5419922-0.015625-0.8681641-0.0458984
			v-0.2021484c0.4960938-0.6972656,1.2714844-1.3798828,2.0927734-1.8603516h0.2324219l-0.2626953,1.2714844h0.4492188
			c0.4345703,0,0.7753906-0.03125,1.1933594-0.1083984c0,0.6669922-0.3720703,0.9609375-1.3486328,0.9609375H143.28125
			l-0.2636719,1.6123047c-0.1240234,0.7441406-0.3105469,2.03125-0.3105469,2.6513672
			c0,1.0224609,0.5117188,1.4726562,1.1943359,1.4726562c0.2480469,0,0.4033203-0.03125,0.6357422-0.1083984v0.2792969
			c-0.1396484,0.3710938-0.6982422,0.7441406-1.4267578,0.7441406c-1.0234375,0-1.5654297-0.6826172-1.5654297-1.9072266
			C141.5449219,97.2773438,141.7773438,95.6650391,142.0253906,94.4707031z"/>
		<path style="&st2;" d="M145.7138672,97.3388672l0.4960938-3.1464844l0.0771484-0.9150391l-0.9296875-0.2949219v-0.2939453
			c0.4960938-0.1865234,0.9921875-0.2636719,1.5498047-0.2636719c0.2792969,0,0.4960938,0.015625,0.6982422,0.0927734
			l-0.6982422,4.5576172c-0.0615234,0.4648438-0.1240234,1.2558594-0.1240234,1.6591797
			c0,0.5117188,0.1865234,0.7441406,0.6201172,0.8837891v0.2636719c-0.3251953,0.1386719-0.6972656,0.2167969-1.1630859,0.2167969
			c-0.4960938,0-0.7441406-0.2636719-0.7441406-0.7128906C145.4960938,98.9511719,145.6357422,97.9589844,145.7138672,97.3388672z
			 M146.4580078,90.1767578c0-0.5117188,0.4033203-0.9609375,0.8681641-0.9609375
			c0.4023438,0,0.7128906,0.3095703,0.7128906,0.7441406c0,0.5263672-0.4189453,0.9609375-0.8681641,0.9609375
			C146.7519531,90.9208984,146.4580078,90.6416016,146.4580078,90.1767578z"/>
		<path style="&st2;" d="M151.9609375,92.3623047c1.0693359,0,1.6591797,0.5429688,1.6591797,1.5966797
			c0,1.8300781-1.8603516,2.9462891-3.7060547,2.9462891c0,1.875,0.4960938,2.3251953,1.3955078,2.3251953
			c0.5585938,0,1.3642578-0.3251953,1.6904297-0.7753906c0.0615234,0.0625,0.1542969,0.2021484,0.1542969,0.3720703
			c0,0.7441406-0.9921875,1.3642578-2.2480469,1.3642578c-1.3017578,0-2.2011719-0.8525391-2.2011719-2.6972656
			C148.7050781,94.0058594,150.4726562,92.3623047,151.9609375,92.3623047z M152.3798828,94.2382812
			c0-0.7285156-0.2949219-1.0078125-0.7441406-1.0078125c-0.6826172,0-1.6591797,1.1787109-1.6591797,2.9609375
			C151.3876953,96.1914062,152.3798828,95.4326172,152.3798828,94.2382812z"/>
		<path style="&st2;" d="M153.9130859,98.6259766c0.4345703,0.4179688,0.9453125,0.6503906,1.5195312,0.6503906
			c0.7285156,0,1.3173828-0.4179688,1.3173828-1.0693359c0-0.5117188-0.2011719-0.8525391-0.9609375-1.5341797l-0.5429688-0.4960938
			c-0.7128906-0.6513672-0.9140625-1.0703125-0.9140625-1.7519531c0-1.0234375,0.9765625-2.046875,2.4023438-2.046875
			c1.1318359,0,1.6904297,0.3408203,1.6904297,0.8369141c0,0.2792969-0.1083984,0.6044922-0.2792969,0.8066406
			c-0.4501953-0.4648438-1.1005859-0.7597656-1.6904297-0.7597656c-0.6816406,0-1.0380859,0.3720703-1.0380859,0.8681641
			c0,0.4492188,0.1855469,0.7128906,0.9609375,1.4111328l0.5888672,0.5263672
			c0.7441406,0.6669922,0.9921875,1.1162109,0.9921875,1.7988281c0,1.2246094-1.2402344,2.2939453-2.8671875,2.2939453
			c-0.9775391,0-1.4111328-0.3095703-1.4111328-0.8837891C153.6806641,98.9980469,153.7734375,98.8115234,153.9130859,98.6259766z"
			/>
	</g>
</g>
</svg>
